<svg enable-background="new 0 0 421.3 421.3" viewBox="0 0 421.3 421.3" xmlns="http://www.w3.org/2000/svg"><path d="m211.5 79.8h147.1c3.5 0 6.8.7 10.1 1.6 7.3 2 12.7 6.6 17.1 12.6 2.7 3.7 3.8 8 4.9 12.3.3 1.3.5 2.7.5 4 0 70.9.1 141.8 0 212.7 0 6.2-2 12-5.7 17.2-3.4 4.8-7.7 8.5-13.1 10.9-2 .9-4.2 1.3-6.2 1.9-2.4.7-4.9.9-7.5.9-98 0-196.1 0-294.1 0-2.7 0-5.3-.4-7.9-1-4.5-1-8.6-2.9-12.3-5.8-5.4-4.4-9.3-9.7-11-16.6-.9-3.4-1.3-6.8-1.3-10.3 0-69.3 0-138.6 0-208 0-3.5.8-6.7 1.6-10.1 1.1-5.1 4.1-9.1 7.4-12.8 1.8-2.1 4.2-3.7 6.6-5.1 5-3 10.5-4.5 16.4-4.5 49 .1 98.2.1 147.4.1zm150 261.8c.8-.2 1.6-.3 2.4-.5 4.8-1.3 8.8-3.9 11.6-8.1 2.4-3.6 3.4-7.7 3.4-12 0-68.5 0-137.1 0-205.6 0-2.3-.1-4.6-.5-6.9-.4-2.1-1-4.4-2.1-6.3-3.1-5.5-7.8-8.9-14.2-9.5-.3 0-.6-.3-.9-.4-.9-.1-1.7-.3-2.6-.3-98.1 0-196.1 0-294.2 0-.6 0-1.2 0-1.8 0-.3 0-.6.2-.9.3-1.1.2-2.2.5-3.3.7-4.2 1-7.5 3.5-10.1 6.9-1.7 2.2-3 4.6-3.5 7.4-.3 1.8-.4 3.6-.4 5.5v208.3 1.6c0 3.8 1.2 7.3 3.4 10.5 3.4 4.9 8.1 7.7 14 8.5.9.1 1.9.3 2.8.3h250.3 44.4c.6-.1 1.4-.3 2.2-.4z" fill="#ececec"/><path d="m361.1 92.1c.3.2.6.4.9.4 6.4.7 11.1 4 14.2 9.5 1.1 1.9 1.6 4.1 2.1 6.3.4 2.3.5 4.6.5 6.9v205.6c0 4.3-.9 8.4-3.4 12-2.8 4.2-6.7 6.8-11.6 8.1-.8.2-1.6.4-2.4.5-1.1 0-2.2-.1-3.3-.1-97.8 0-195.6 0-293.4 0-1.1 0-2.2 0-3.3.1-5.9-.8-10.6-3.6-14-8.5-2.2-3.1-3.3-6.6-3.4-10.5 0-.5 0-1.1 0-1.6 0-69.4 0-138.9 0-208.3 0-1.8.1-3.6.4-5.5.5-2.9 1.9-5.3 3.5-7.4 2.5-3.3 5.8-5.8 10.1-6.9 1.1-.3 2.2-.5 3.3-.7h3.3 293.4c1.2.2 2.2.1 3.1.1zm-208.2 67.2c1.9.6 3.9.6 5.8 0 5.5-.9 10-3.5 13.3-8 3.6-5.1 4.9-10.7 3.2-16.9-1.8-6.7-5.8-11.3-12.2-13.8-1.5-.6-3.1-.9-4.7-1.3-1.7-.6-3.3-.6-5 0-9.5 1-17.5 9.6-17.8 19.5-.4 10.6 8.4 19.5 17.4 20.5zm51.4 91.2c0-5 0-10 0-15 0-.7-.1-1.5-.2-2.2-.6-4.5-2.9-8-6.1-11.1-3.4-3.2-7.4-4.9-12-4.9-4.7-.1-9.5-.1-14.2 0-7.1.2-12.3 3.7-15.9 9.7-1.9 3.2-2.6 6.7-2.6 10.4v25.7c0 1.6.1 3.3.4 4.9.8 4.2 2.8 7.7 5.9 10.5 3.8 3.4 8.3 5.1 13.5 5h11.1c1.5 0 3-.1 4.5-.4 8.9-1.6 15.5-9.5 15.6-18.3.1-4.8.1-9.6 0-14.3zm-65.8-.3c0-5 0-10 0-15 0-.8-.1-1.6-.3-2.4-.8-4.3-2.9-7.7-6.1-10.7-3.4-3.1-7.3-4.8-11.9-4.9-4.9-.1-9.9 0-14.8 0-.6 0-1.3 0-1.8.1-9.5 2-16 9.4-16.1 19.3-.1 8.1-.1 16.2 0 24.3 0 2.2.1 4.4.4 6.5.5 4.5 2.8 8.1 6 11.1 3.8 3.5 8.4 5.1 13.5 5 3.9-.1 7.8 0 11.7 0 1.2 0 2.3-.2 3.4-.4 9-1.4 16.2-10 15.9-19.1 0-4.6.1-9.2.1-13.8zm131.7.2c0-4.9 0-9.9 0-14.8 0-.7-.1-1.5-.2-2.2-.7-4.4-2.8-8.1-6.1-11.1-3.4-3.2-7.5-5-12.2-5s-9.3.1-14 0c-3-.1-5.8.7-8.2 2.2-6.6 3.7-10.2 9.5-10.3 17.1-.1 8.8-.1 17.7 0 26.5 0 1.6.1 3.3.4 4.9.7 4.2 2.7 7.7 5.9 10.6 3.8 3.4 8.3 5.2 13.5 5.1h11.1c1.5 0 3-.1 4.5-.4 9-1.5 15.8-9.8 15.7-18.7-.2-4.9-.1-9.5-.1-14.2zm65.8 0c0-4.9 0-9.9 0-14.8 0-.7 0-1.4-.1-2-.7-4.4-2.7-8.1-6-11.2-3.5-3.3-7.6-5.1-12.4-5.1-4.7 0-9.3.1-14 0-3-.1-5.8.7-8.2 2.2-6.6 3.7-10.2 9.5-10.3 17.1-.1 8.8-.1 17.7 0 26.5 0 1.6.2 3.3.4 4.9.7 4.3 2.8 7.9 6 10.7 3.9 3.5 8.5 5.1 13.7 5 3.6-.1 7.3 0 10.9 0 1.4 0 2.9-.1 4.3-.4 8.8-1.5 15.7-9.6 15.7-18.5 0-5 0-9.7 0-14.4zm-254.7-111.1c-.2 10.7 8.7 20.3 20.2 20.2 11.8 0 20.1-9.7 20.2-20.1.1-10.9-9.2-20.1-20.1-20.2-9.9-.2-20.4 8.2-20.3 20.1zm148.6 0c.5-10.3-8.1-20.3-20.1-20.3-11.5 0-20.2 8.8-20.2 20.3 0 12 10 19.9 20 20 11.1.2 20.7-9.1 20.3-20z" fill="#444"/><path d="m61.6 341.5c1.1 0 2.2-.1 3.3-.1h293.4c1.1 0 2.2 0 3.3.1-.8.1-1.6.3-2.4.3-14.8 0-29.6 0-44.4 0-83.4 0-166.9 0-250.3 0-1.1.1-2-.1-2.9-.3z" fill="#c4ecec"/><path d="m361.1 92.1c-1 0-1.9.1-2.9.1-97.8 0-195.6 0-293.4 0-1.1 0-2.2 0-3.3 0 .3-.1.6-.3.9-.3.6-.1 1.2 0 1.8 0h294.2c1-.1 1.9.1 2.7.2z" fill="#c59e9e"/><g fill="#6c6c6c"><path d="m204.4 250.5v14.2c-.1 8.9-6.7 16.7-15.6 18.3-1.5.3-3 .4-4.5.4-3.7.1-7.4 0-11.1 0-5.2.1-9.7-1.6-13.5-5-3.1-2.8-5.1-6.4-5.9-10.5-.3-1.6-.4-3.3-.4-4.9 0-8.6 0-17.1 0-25.7 0-3.7.7-7.2 2.6-10.4 3.6-5.9 8.8-9.5 15.9-9.7 4.7-.1 9.5-.1 14.2 0 4.6.1 8.6 1.7 12 4.9 3.2 3.1 5.5 6.6 6.1 11.1.1.7.2 1.5.2 2.2 0 5.1-.1 10.1 0 15.1z"/><path d="m138.5 250.2c0 4.6-.1 9.2 0 13.8.3 9.2-6.9 17.7-15.9 19.1-1.1.2-2.3.3-3.4.4-3.9 0-7.8 0-11.7 0-5.2.1-9.7-1.5-13.5-5-3.2-3-5.5-6.6-6-11.1-.3-2.2-.4-4.4-.4-6.5 0-8.1-.1-16.2 0-24.3.1-9.9 6.6-17.3 16.1-19.3.6-.1 1.2-.1 1.8-.1 4.9 0 9.9-.1 14.8 0 4.6.1 8.5 1.8 11.9 4.9 3.2 2.9 5.3 6.4 6.1 10.7.2.8.3 1.6.3 2.4-.1 5-.1 10-.1 15z"/><path d="m270.2 250.4v14c.1 8.8-6.7 17.2-15.7 18.7-1.5.2-3 .4-4.5.4-3.7.1-7.4 0-11.1 0-5.2.1-9.7-1.7-13.5-5.1-3.1-2.8-5.1-6.4-5.9-10.6-.3-1.6-.4-3.3-.4-4.9 0-8.8-.1-17.7 0-26.5.1-7.6 3.7-13.3 10.3-17.1 2.5-1.4 5.3-2.2 8.2-2.2 4.7.1 9.3 0 14 0s8.8 1.8 12.2 5c3.3 3 5.4 6.7 6.1 11.1.1.7.2 1.5.2 2.2.1 5.1.1 10.1.1 15z"/><path d="m336 250.4v14.2c0 8.9-6.8 16.9-15.7 18.5-1.4.2-2.8.4-4.3.4-3.6.1-7.3 0-10.9 0-5.2.1-9.9-1.5-13.7-5-3.2-2.8-5.3-6.4-6-10.7-.3-1.6-.4-3.3-.4-4.9 0-8.8-.1-17.7 0-26.5.1-7.6 3.7-13.3 10.3-17.1 2.5-1.4 5.3-2.2 8.2-2.2 4.7.1 9.3 0 14 0 4.8 0 8.9 1.9 12.4 5.1 3.3 3.1 5.2 6.8 6 11.2.1.7.1 1.4.1 2z"/></g><path d="m81.3 139.3c-.1-11.8 10.3-20.2 20.3-20.1 10.8.1 20.1 9.3 20.1 20.2-.1 10.4-8.3 20.1-20.2 20.1-11.4.1-20.4-9.6-20.2-20.2z" fill="#fb4a4a"/><path d="m229.9 139.3c.4 10.9-9.2 20.2-20.3 20.1-10-.1-20-8-20-20 0-11.5 8.7-20.3 20.2-20.3 12-.1 20.6 9.9 20.1 20.2z" fill="#29c432"/><path d="m158.3 119.3c1.6.4 3.2.7 4.7 1.3 6.5 2.4 10.5 7.1 12.2 13.8 1.6 6.2.4 11.8-3.2 16.9-3.2 4.5-7.8 7.1-13.3 8-1.9 0-3.9 0-5.8 0-9-1-17.8-9.8-17.4-20.5.3-9.9 8.3-18.5 17.8-19.5z" fill="#fcb325"/><path d="m152.9 159.3h5.8c-1.9.6-3.9.6-5.8 0z" fill="#a8643b"/><path d="m158.3 119.3c-1.7 0-3.3 0-5 0 1.7-.6 3.3-.6 5 0z" fill="#878c2f"/></svg>