<svg enable-background="new 0 0 1611.6 2063.5" viewBox="0 0 1611.6 2063.5" xmlns="http://www.w3.org/2000/svg"><path d="m318.4.8c6-.2 12-.7 18-.7 394.1 0 788.3-.1 1182.4 0 21.3 0 42.1 3 59.6 16.8 15.8 12.4 26.4 27.4 30.1 48.2 3.1 17.4 3 34.6 3 51.9.1 617.2.1 1234.3-.2 1851.5 0 13.3-2.6 26.8-5.8 39.8-6.5 26-41.6 54.5-72.2 54.8-5.5.1-10.9.1-16.4.1-393 0-786.1 0-1179.1 0-6.5 0-13.1-.5-19.6-.8.1-4.4.2-8.7.2-13.1.1-682.8 0-1365.6 0-2048.5z" fill="#3498db"/><path d="m318.4.8v2048.5c0 4.4-.1 8.7-.2 13.1-5.4.2-10.9.7-16.3.7-76.5.2-153.1.6-229.6-.1-10.1-.1-21.2-4-30-9.2-27.2-16.2-44.1-39.3-42.3-72.8.4-6.5 0-13.1 0-19.7 0-620.4 0-1240.9 0-1861.3 0-8.7.6-17.5.1-26.2-1.5-26.3 23.8-62.1 52.2-68 12-2.5 24.2-5.4 36.3-5.5 71.4-.5 142.4-.2 213.5-.2 5.4 0 10.9.5 16.3.7z" fill="#2c3e50"/></svg>