<svg enable-background="new 0 0 1608.6 2045.2" viewBox="0 0 1608.6 2045.2" xmlns="http://www.w3.org/2000/svg"><path d="m1483.3 1204.3c.2 42.8.4 85.6.4 128.4 0 203.2-.1 406.5.1 609.7 0 45.6-17.6 79.8-61.3 97.1-9.6 3.8-20.8 4.7-31.3 4.7-391.3.2-782.6-.4-1173.9 1-46.1.2-92-42.5-91.6-94.2 1.8-249.8.8-499.7.8-749.5 4.3-.2 8.7-.4 13-.4h1326.7c4.9 0 9.7.3 14.6.5.8.9 1.6 1.8 2.5 2.7z" fill="#2d3e51"/><path d="m1480.7 1201.5c-4.9-.2-9.7-.5-14.6-.5-442.2 0-884.4 0-1326.7 0-4.3 0-8.7.3-13 .4-10.8-.2-21.8-1.6-32.4-.2-48.7 6-96.3-46.7-93.9-92.8 3.3-64.8 2.9-130 .1-194.8-1.9-46 38.4-93.6 93.6-93.3 141.8.8 283.7.3 425.5.2 7 0 14-.4 21.1-.6 1.6.2 3.2.5 4.8.5h756.8c1.1 0 2.1-.3 3.2-.4 62.3.2 124.6.1 186.9.7 16.6.2 33.8.4 49.6 4.7 41 11.3 63.2 37.9 65 85.4 2.5 66.6 1.3 133.3.4 199.9-.6 51.3-40.9 89.7-92.2 90.2-10.3.1-20.6.3-30.9.5-1.1.1-2.2.1-3.3.1z" fill="#3397da"/><path d="m1305.2 820c-1.1.1-2.1.4-3.2.4-252.3 0-504.5 0-756.8 0-1.6 0-3.2-.3-4.8-.5 30.9-48.3 61.6-96.7 92.7-144.8 101.9-157.7 203.9-315.3 305.8-473 41.4-64.1 82.7-128.2 124-192.4 1.7-2.7 3.6-5.2 6.8-9.7 179.3 115.7 358.1 231 538.9 347.7-13.1 20.5-25.6 40.4-38.4 60.2-87 134.5-174 268.9-260.9 403.5-1.8 2.6-2.8 5.7-4.1 8.6z" fill="#bfc8d2"/></svg>