<svg enable-background="new 0 0 557 1296.5" viewBox="0 0 557 1296.5" xmlns="http://www.w3.org/2000/svg"><g clip-rule="evenodd" fill-rule="evenodd"><path d="m473.7 78.5c-39.4-64.1-101.7-61.9-167.8-58.3-66.7 8-126.6-8.6-172.2 40.1-22.6 23.8-41.4 63.6-54.6 121.2-13.3 57-20.9 131.7-21.1 209.2.2 78.6 6.6 158 18.3 222.3 11.7 64.8 28.5 114.8 49.3 146.3 20.8 32 45.7 45.4 73.9 48.4 28.2 3.6 60-3.3 93.8 2.4 67.2 1.8 120.9 14.1 160.2-38.1 19.8-25.7 36.1-67.2 48.4-126 12.2-58.2 20.4-133.7 22.9-214.5 5.8-166.3-11.2-292.7-51.1-353z" fill="#8e3e09"/><path d="m295.2 169.5c-94.5 0-171.1 76.6-171.1 171.1v293.1c0 94.5 76.6 171.1 171.1 171.1s171.1-76.6 171.1-171.1v-293c.1-94.5-76.6-171.2-171.1-171.2z" fill="#7c3608"/><path d="m305.6 629.4c-.4 0-.8 0-1.2 0-83.7-.9-156.2 51.3-155.6 136.6v379.6c0 83.3 67.6 150.9 151.1 150.9h1.2c83.4 0 151.1-67.5 151.1-150.9 0-126.5 0-253.1 0-379.6-.6-85.3-63.5-137.9-146.6-136.6z" fill="#4e3c4a"/><path d="m299.3 575.1c-12.7 0-23 10.3-23 23v50.6c0 12.7 10.3 23 23 23 12.7 0 23-10.3 23-23v-50.6c.1-12.7-10.2-23-23-23z" fill="#ccb299"/><path d="m463.9 282.3c-5.1-92.5-19.4-124.2-44.9-141.5-13-9.2-29.3-15.9-49.4-23.5-20-7.1-43.7-15-69-13.4-25.1-1.5-50 6.6-71.2 13.8-21.3 7.8-38.8 14.8-52.7 24.1-27.5 17.9-41.3 50.2-47 142.2-2.4 43.8-1.2 92.9 5 134.8 6.2 42.4 17.5 77.8 32.9 104.8 31 53.4 77.7 77.8 128.2 78.6 50.5-.8 97.1-25.1 128.4-78.6 15.6-27.2 27.1-62.8 33.6-105.5 6.7-42.3 8.3-91.7 6.1-135.8z" fill="#e4c6a9"/><g fill="#984812"><path d="m231.5 227.3c14.9 0 28.9 5.5 40.6 14.9-8.6-17.4-24.9-29.1-43.5-29.1-21.8 0-40.3 16-47.2 38.3 13.2-15 30.8-24.1 50.1-24.1z"/><path d="m379 227.3c19.3 0 36.8 9.1 50.2 24.1-6.9-22.3-25.5-38.3-47.2-38.3-18.6 0-34.9 11.7-43.5 29.1 11.7-9.4 25.6-14.9 40.5-14.9z"/><path d="m391.6 10.6c-.2-.1-.3-.2-.5-.4-10.8-7.2-29.5-10.7-57.9-10.2-27.8.5-65.3 5-102.6 13.6s-74.4 21.5-101.2 38.6c-27.2 17.1-43.9 38.5-50.1 63.6-15.5 57.8-32.8 111.9-43.5 164-6.5 46.4-13.1 97.7-22.2 136.9-8.1 39.5-18.6 67-11.1 73.2.1 0 .1.1.2.1 4.8 1.8 12.8-5.4 29.5-22.1 16.2-16.4 40.9-42.4 68.9-72 56.6-60.1 121.9-128.9 138.4-165.8 22.2-43.8 68.5-70.3 109.5-95.9 34.6-20.9 39.7-34 47.9-57.4 5.5-21.4 14-53-5.3-66.2z"/><path d="m540.9 156.9c1.5-33.9-47.8-77.1-80.3-102.4-35.2-26.6-53.6-35.5-53.4-30.3 0 .1-.1.2-.1.3-1.2 5.1 5.2 21.2 1.8 37.6-1.6 17.1-13 34.6-7.4 58.5 11.1 45.8 31.2 97.2 33.2 141.2 2.1 23.4 17.2 54.3 26.8 69.9 11.3 17 17.1 18.6 37.4 15.7.3-.1.6-.1 1-.2 20.9-2.9 35.4-10.1 44.3-13.2 9-4.3 12.4-4.5 12.9-21-5.5-31.5-12.9-92.4-16.2-156.1z"/><ellipse cx="363.9" cy="316.1" rx="17.4" ry="18.5"/><ellipse cx="248.9" cy="315.4" rx="17.4" ry="18.5"/></g><ellipse cx="303.2" cy="527.5" fill="#b80000" rx="17.4" ry="18.5"/></g></svg>