<?xml version="1.0" encoding="utf-8"?>
<!-- Generator: Adobe Illustrator 21.1.0, SVG Export Plug-In . SVG Version: 6.00 Build 0)  -->
<svg version="1.1" id="wwk_xA0_Image_1_" xmlns="http://www.w3.org/2000/svg" xmlns:xlink="http://www.w3.org/1999/xlink" x="0px"
	 y="0px" viewBox="0 0 579 1318.5" style="enable-background:new 0 0 579 1318.5;" xml:space="preserve">
<style type="text/css">
	.st0{fill:#D9D9D9;}
	.st1{fill:#FEFEFE;}
</style>
<g>
	<path class="st0" d="M417.8,37.7c1.4-3.2,2.5-3.9,5.3-2.6c5.1,2.3,10.3,4.8,15.1,7.6c15.3,9.1,29.6,19.7,43.4,30.9
		c8.8,7.2,17.2,14.9,25.7,22.5c11.1,9.8,20.9,20.7,29.6,32.6c6.9,9.4,12.8,19.3,15,30.9c0.5,2.7,0.6,5.4,0.8,8.1
		c0.7,10.4,1.3,20.8,2,31.3c0.2,3.3,0.3,6.6,0.6,9.9c0.6,6.9,1.3,13.8,1.9,20.8c0.4,4.1,0.7,8.3,1.1,12.4c0.8,7.3,1.6,14.6,2.4,21.9
		c0.7,6.3,1.4,12.7,2.1,19c0.8,6.8,1.7,13.6,2.7,20.4c1,7,2.6,13.9,3.1,20.9c0.3,4-0.6,8.2-1.5,12.3c-0.6,3.1-2.9,5.3-5.8,6.5
		c-7.3,3.1-14.6,6.1-21.9,8.9c-1.8,0.7-2.2,1.6-2.2,3.3c0.2,15.5,0.4,31,0.5,46.4c0,6.8-0.3,13.6-0.5,20.4
		c-0.1,5.2-0.3,10.5-0.5,15.7c-0.3,9.3-0.6,18.6-1,27.9c-0.3,7-0.5,13.9-1,20.9c-0.7,10.3-1.6,20.6-2.4,30.9
		c-0.4,4.8-0.6,9.6-1,14.4c-0.6,6.3-1.3,12.5-1.9,18.8c-0.5,5.3-1,10.5-1.6,15.8c-0.8,7.5-1.6,15-2.6,22.4
		c-0.8,6.6-1.9,13.1-2.9,19.6c-1,6.3-1.9,12.6-3,18.9c-1.9,10.4-3.6,20.9-6,31.2c-3.3,14.6-6.7,29.2-10.7,43.7
		c-5.3,19.1-12,37.7-21.2,55.3c-4.6,8.8-10.5,16.9-15.6,25.5c-1.1,1.9-1.9,4.3-1.9,6.5c-0.1,30.7-0.1,61.3-0.1,92
		c0,93.7,0.1,187.5-0.1,281.2c0,16.1-3.4,31.7-9.1,46.9c-5.3,14.2-12.6,27.3-21.8,39.4c-9,11.8-19.5,21.9-31.5,30.6
		c-12.9,9.3-26.9,16.4-42.1,21.3c-9.6,3.1-19.3,5.5-29.4,6.2c-9,0.6-18.1,1.4-27.1,0.9c-16.9-1-33.3-4.7-48.9-11.3
		c-16.1-6.8-30.5-16-43.5-27.7c-15.4-13.9-27.3-30.3-36-49.1c-5.9-12.7-9.9-26.1-11.9-39.9c-0.8-5.5-1.5-11-1.5-16.5
		c-0.1-120.4-0.1-240.8,0-361.2c0-3-1.2-4.8-3.1-6.9c-5.4-5.7-11-11.4-15.6-17.6c-13.8-18.4-22.8-39.3-30.5-60.8
		c-6-16.7-11-33.6-14.8-50.9c-3.8-17.2-7.1-34.5-10.4-51.9c-1.7-8.9-3.1-17.9-4.4-26.9c-1.1-7.3-1.7-14.6-2.6-21.9
		c-0.8-6.6-1.7-13.1-2.4-19.7c-0.7-6.3-1.1-12.7-1.6-19.1c-0.6-7.5-1.3-15-1.9-22.5c-0.4-4.7-0.8-9.4-1.1-14.1
		c-0.5-9.3-1-18.5-1.5-27.8c-0.1-3.1,0-6.3-0.6-9.8c-1.8,1.8-3.5,3.6-5.3,5.5c-2.1,2.2-4.2,4.5-6.3,6.7c-6,6.2-11.9,12.6-18.2,18.6
		c-6.1,5.8-12.6,11.3-19.1,16.8c-2,1.7-4.6,2.7-6.9,1.5c-2.4-1.2-2.9-4.2-2.6-6.6c0.5-5.7,1-11.4,2.2-17c3.8-17.3,8.2-34.5,12-51.8
		c3-13.9,5.6-27.9,8.1-41.9c2.1-11.8,3.8-23.7,5.6-35.5c1.6-10.6,3.4-21.1,4.5-31.7c2.6-26.2,9.1-51.7,15.9-77
		c6.3-23.4,13-46.7,19.4-70c4.1-14.9,8.1-29.8,12.3-44.6c3.6-12.9,9.8-24.5,18.5-34.7c12.2-14.4,27.3-25.1,43.9-34
		c20.4-10.8,41.8-18.8,64-24.7c15.8-4.2,31.8-7.9,47.9-11.3c10.1-2.1,20.4-3.4,30.7-4.7c8-1.1,16.1-1.8,24.2-2.5
		c6.3-0.5,12.6-0.7,18.9-1c5.1-0.2,10.3-0.7,15.4-0.4c12.8,0.6,25.7,1,38,5.5c8.9,3.2,16.2,8.2,19.8,17.6
		C413.3,36.3,416,36.8,417.8,37.7z M283.9,542.2c0.6,0.3,0.6,0.4,0.7,0.4c15.8-0.1,31.6-0.2,47.4-0.4c0.5,0,1.3-0.8,1.3-1.3
		c0-3.5-0.2-7-0.2-10.5c0-2.2-0.2-4.5,0.1-6.7c1.3-8.8,6.1-15.9,12.3-21.7c6.4-6,13.4-11.4,20.5-16.5c10.5-7.7,20.4-16,28.3-26.4
		c9.3-12.4,14.7-26.2,14.6-41.8c-0.1-7.2-1.4-14.3-3.4-21.3c-5.2-18.1-15.8-31.8-32.6-40.5c-15.4-8-32.2-10.6-49.3-11.2
		c-3.7-0.1-7.5,0.4-11.2,0.4c-10.3,0.1-20.3,1.7-30.1,4.5c-23.7,6.7-41.5,20.8-52.9,42.7c-4.9,9.5-8,19.7-10.4,30.1
		c-0.4,1.8-0.5,3.7-0.7,5.5c17.9,3.5,35.3,6.9,52.6,10.4c2.4,0.5,3.1-0.1,3.5-2.2c1.5-7.4,3.9-14.4,7.5-21c3.4-6.2,7.9-11.4,14-15.2
		c7.3-4.6,15.3-5.9,23.7-5.1c6.3,0.6,12.2,2.8,16.9,7.3c9.9,9.5,11.8,26.5,4.7,38.5c-5.6,9.4-13.2,16.8-21.4,23.7
		c-6.4,5.4-13.1,10.6-19,16.5c-7,7-11.7,15.7-14.4,25.3c-1.5,5.4-2.6,10.8-2.5,16.4C284,528.8,283.9,535.6,283.9,542.2z
		 M339.3,621.8c0-19.2,0-38,0-56.8c-0.6-0.1-0.9-0.1-1.2-0.1c-19,0-38,0-57-0.1c-2.2,0-2.1,1.2-2.1,2.7c0,17.2,0.1,34.3,0,51.5
		c0,2.3,0.6,2.9,2.9,2.9c18.2-0.1,36.5-0.1,54.7-0.1C337.4,621.8,338.2,621.8,339.3,621.8z"/>
	<path class="st1" d="M283.9,542.2c0-6.7,0.1-13.5,0-20.2c-0.1-5.6,1-11,2.5-16.4c2.8-9.6,7.4-18.3,14.4-25.3
		c5.9-5.9,12.6-11.1,19-16.5c8.3-6.9,15.9-14.4,21.4-23.7c7.1-12,5.2-29-4.7-38.5c-4.7-4.5-10.5-6.7-16.9-7.3
		c-8.3-0.8-16.4,0.5-23.7,5.1c-6.1,3.8-10.6,9-14,15.2c-3.6,6.6-6,13.7-7.5,21c-0.4,2.2-1.1,2.7-3.5,2.2
		c-17.4-3.6-34.8-6.9-52.6-10.4c0.2-1.9,0.3-3.7,0.7-5.5c2.3-10.4,5.4-20.6,10.4-30.1c11.4-22,29.1-36,52.9-42.7
		c9.9-2.8,19.9-4.3,30.1-4.5c3.7-0.1,7.5-0.6,11.2-0.4c17.1,0.6,33.9,3.2,49.3,11.2c16.8,8.7,27.4,22.4,32.6,40.5
		c2,7,3.3,14.1,3.4,21.3c0.1,15.6-5.2,29.4-14.6,41.8c-7.9,10.5-17.7,18.8-28.3,26.4c-7.1,5.2-14.1,10.6-20.5,16.5
		c-6.2,5.8-11,12.9-12.3,21.7c-0.3,2.2-0.1,4.5-0.1,6.7c0.1,3.5,0.2,7,0.2,10.5c0,0.4-0.9,1.2-1.3,1.3c-15.8,0.2-31.6,0.3-47.4,0.4
		C284.6,542.6,284.5,542.5,283.9,542.2z"/>
	<path class="st1" d="M339.3,621.8c-1.1,0-1.9,0-2.7,0c-18.2,0-36.5,0-54.7,0.1c-2.3,0-2.9-0.7-2.9-2.9c0.1-17.2,0.1-34.3,0-51.5
		c0-1.5-0.1-2.7,2.1-2.7c19,0.1,38,0,57,0.1c0.3,0,0.7,0.1,1.2,0.1C339.3,583.7,339.3,602.6,339.3,621.8z"/>
</g>
</svg>
