<svg enable-background="new 0 0 2074.3 816.7" viewBox="0 0 2074.3 816.7" xmlns="http://www.w3.org/2000/svg"><g fill="#2d4051"><path d="m747.8 459.2c-13.1 5.4-24.8 12-37.3 14.9-20.1 4.7-36.7-11.4-33.3-31.7 5.1-30.3 11.4-60.5 17.3-90.7 1-.1 2.1-.1 3.1-.2 4.8 19.8 9.6 39.6 15 61.8 10.2-20.3 26.4-34.9 29.2-57.3 2.9-23.2 17.9-38.2 37.9-40.9 24-3.2 45.7 19.7 38.1 42.6-4.9 14.8-3 28.4-1.4 42.7 5.1 43.6 9.7 87.2 3.2 131-7.7 52.4-38.2 83-90.4 92.4-27.3 4.9-54.6 5-82 2-4.7-.5-9.2-2.4-15.3-4.1 32.5-12.1 61.7-26.5 89.2-44.3 20.2-13.1 31-31.1 29.5-55.8-.9-14.5-1.2-29-1.8-43.5-.3-6.7-.8-13.4-1-18.9z"/><path d="m307.9 246.8c3.7 25.8 9.5 51.6 10.5 77.5 1.7 46.5.5 93.1.5 139.6 0 12.9-.1 13.6 12.8 14.2 40 2 80.1 3.5 120.2 5 10.7.4 21.4.1 32 .1.1.9.3 1.9.4 2.8-2.2 1.4-4.4 2.9-6.7 4-39.3 19.2-78.4 39.2-121.3 49.2-14 3.3-28.7 5.1-43 4.9-37.5-.6-62.4-23.9-62.2-61.3.1-28.5 4.3-57.1 8.8-85.3 8-50.4 23.7-98.8 42.8-146 .7-1.7 1.6-3.3 2.4-4.9.8.1 1.8.1 2.8.2z"/><path d="m1706.6 401.4c-16.6 1-32.2 2.6-47.8 2.6-15 0-30.3-.5-45.1-2.8-7.7-1.2-15.8-5.7-21.7-11-10.8-9.5-9.4-24.9 2.1-33.7 10.1-7.6 20.8-14.5 30.9-22 12.3-9.1 24.4-18.6 38.3-27.4-6.1 12.8-12.2 25.7-18.6 39.1 1.9-.3 4.1-.5 6.2-1 17.7-4.1 35.2-8.9 53.1-12.2 55-10.2 80.3 36.5 73.4 76.6-5.4 31.4-23.4 55.5-47.2 75.2-18 14.9-37.7 27.8-56.7 41.6-6.7 4.9-13.4 4.5-19.4-1-6.5-5.9-3.8-12.2.1-18.3 12.1-19 24.8-37.5 35.8-57.1 6.5-11.4 10.4-24.2 15.1-36.6 1.2-3.2.9-7 1.5-12z"/><path d="m1079.5 445.1c-12.4 14.9-24.2 29.5-36.6 43.6-8.6 9.9-17 11.8-26.2 7.5-9.1-4.2-14.4-13.9-11.3-25.8 7.3-27.9 15.9-55.5 24-83.2 1.1.1 2.3.2 3.4.3 1.5 7.5 2.9 15 4.8 24.7 4.7-7.5 8.4-13.3 12.1-19.1 3.3-5.2 6.7-10.4 9.8-15.7 7.4-12.3 17.3-20.7 32.5-17.8 15.4 3 23.3 14 26.4 28.8 1.9 8.9 3.6 17.9 5.8 28.5 21.3-19.5 29.2-45.5 44.6-69.7 1 34.1 2.4 65.7-13.9 94.7-10.9 19.3-27.1 27.7-46.5 24.6-10.4-1.7-15.6-5.5-28.9-21.4z"/><path d="m497.4 463.8c1.7-7.6 2.5-14.5 4.8-20.7 11.7-30.9 31-56.2 61.1-70.7 17.6-8.5 36.5-5.1 53.2 4.9 17.9 10.8 22.5 27.8 18.7 47.3-7 36-24.1 64.6-58.5 81.6-26.2 12.9-61.3 2.6-74-23.7-2.8-5.9-3.7-12.7-5.3-18.7zm27.1-19.7c-.2 18.7 8.4 27.4 21.8 23.7 8.3-2.3 16.8-6.4 23.6-11.7 14.2-11.1 22-27.2 27.7-43.8 1.2-3.6-1.4-10.4-4.5-13.3-10.1-9.4-23.2-12.2-36.6-12.8-1.8-.1-4.3 1.1-5.5 2.5-14 17.1-24.7 35.8-26.5 55.4z"/><path d="m1505.2 390.4c16.4-.6 31.4 12.9 48.6 4.5 1 9-2.9 15.3-13.1 17.1-12.1 2.1-24.5 3.1-36.7 3.8-5.5.3-8.3 1.8-9.7 7.3-1.8 7.1-4.6 14-6.6 21.1-2.4 8.1-7.6 13-16 12.6-8.2-.4-12.5-5.9-13.7-13.8-.7-5.2-1.5-10.4-1.9-15.6-.6-8.1.1-15.9-8.5-21.7-6.8-4.6-5.7-14.6 1.4-20.1 5.6-4.4 6.4-9.6 7.2-15.9 5.6-45.1 19.7-87.5 42.1-127.1.3-.5.9-.7 2-1.4 9 35.9 10.8 72.2 9.1 111.8 17.6-11.1 33.1-20.8 50.3-31.6-4.6 7.9-7.6 15.8-12.9 21.5-11.3 12.1-23.9 23.1-35.7 34.7-3 2.9-5.3 6.7-7.9 10 .6.9 1.3 1.9 2 2.8z"/><path d="m1267.3 372.3c-2.1 1.6-4.3 3.2-7.6 5.7 5.5 1.3 9.9 2 14.1 3.4 15.3 5 23.4 18 20.1 33.8-5.2 24.3-17 44-40.4 55.1-13.2 6.3-27.8 4.7-38.8-4.6-10.2-8.7-15.5-24.8-8.7-37.8 6.9-13.4 17.2-25.1 26.2-37.5 8.6-11.8 21.8-15.5 35.1-18.1zm-23.8 23.2c-4.2 11.3-9.1 22.7-12.4 34.6-2 7 2.7 10.4 8.9 6.5 5.8-3.7 11.2-8.7 15.6-14 12.9-16 10.8-21.4-12.1-27.1z"/><path d="m946.7 265.9c.1 25.9-21.7 46-45.1 41.5-15.7-3-25.6-18.2-20.2-33.2 3.4-9.4 8.4-18.5 14.2-26.7 8.5-11.9 20.4-15.8 31.3-12.1 11.9 4.1 19.7 16.2 19.8 30.5z"/><path d="m1343.5 366.1c.9 1.5 1.9 3.1 2.8 4.6.8 1.2 1.7 2.4 2.9 4.2 18.6-17.2 39.5-22.4 64.5-13.6-2.8 1.9-4.6 3.3-6.7 4.4-23.8 12.4-36 32.7-40.4 58.5-2.3 13.5-7 19.3-16.5 20.2-11.2 1.1-20.8-6.7-19.6-19.1 1.8-20 5.9-39.7 9-59.6 1.4.1 2.7.3 4 .4z"/><path d="m910.7 344.2c11.4 15.8 17.2 32.7 21.1 50.6 3.8 17.2.8 33.7-3.6 50.1-1.6 6.1-3.8 12.2-11.6 12.4-7.4.2-8.2-6-10.4-11-15-34.4-11.2-67.9 4.5-102.1z"/></g></svg>