<?xml version="1.0" encoding="utf-8"?>
<!-- Generator: Adobe Illustrator 21.1.0, SVG Export Plug-In . SVG Version: 6.00 Build 0)  -->
<svg version="1.1" id="Layer_1" xmlns="http://www.w3.org/2000/svg" xmlns:xlink="http://www.w3.org/1999/xlink" x="0px" y="0px"
	 viewBox="0 0 491.5 491.5" style="enable-background:new 0 0 491.5 491.5;" xml:space="preserve">
<style type="text/css">
	.st0{fill:#F3F3F3;}
	.st1{fill:#CBCBCB;}
	.st2{fill:#E9E9E9;}
	.st3{fill:#D1D1D1;}
	.st4{fill:#F1F1F1;}
	.st5{fill:#D3D3D3;}
	.st6{fill:#DFDFDF;}
	.st7{fill:#D9D9D9;}
	.st8{fill:#E5E5E5;}
	.st9{fill:#E7E7E7;}
	.st10{fill:#ECECEC;}
	.st11{fill:#191919;}
	.st12{fill:#4C4C4C;}
	.st13{fill:#4E4E4E;}
	.st14{fill:#3E3E3E;}
	.st15{fill:#454545;}
	.st16{fill:#484848;}
	.st17{fill:#BFBFBF;}
	.st18{fill:#363636;}
	.st19{fill:#383838;}
	.st20{fill:#444444;}
	.st21{fill:#F34437;}
	.st22{fill:#FEC109;}
	.st23{fill:#1CBB32;}
	.st24{fill:#1B1B1B;}
	.st25{fill:#BEBEBE;}
</style>
<path class="st0" d="M492.2,350.9c-0.4,0.3-1,0.6-1.2,1c-1.9,2.8-4.3,5-7,6.8c-1.5,1.1-3.3,1.8-5.1,2.4c-4.3,1.5-8.8,1.8-13.4,1.8
	c-15.9-0.1-31.8,0-47.7,0c-1,0-1.9,0-3.1,0c-0.1,1.1-0.1,2-0.1,2.9v56.4c0,3.5-0.6,7-2.2,9.9c-2,3.8-4.7,7.1-8.4,9.6
	c-3.6,2.5-7.7,3.4-11.8,4.1c-2.8,0.5-5.7,0.5-8.6,0.5c-19.4,0-38.9,0-58.3,0c0-0.2,0-0.4,0.1-0.4c2.4-1.6,3.1-4.2,3.7-6.7
	c0.9,0,1.8-0.1,2.6-0.1h56.1c3.6,0,7.1-0.5,10.2-2.2c6.2-3.4,9.4-8.6,9.4-15.8c0-78.2,0-156.4,0-234.6c0-0.9-0.1-1.8-0.1-2.6
	c0-0.9,0.1-1.8,0.1-2.6c0-8.5,0-17.1,0-25.6c0-3.6-0.7-6.9-2.5-10c-0.2-2,0.4-3.9,1.2-5.7c0.4-0.9,0.9-1.7,2.1-1.6
	c4.2,4.3,6.3,9.7,6.4,15.6c0.2,11.6,0,23.2,0,34.7v6v147.2c0,1,0.1,1.9,0.1,2.9v11c0.5,0.1,0.9,0.1,1.3,0.1h54c3.1,0,6.3-0.6,9-2.3
	c6-3.5,9.1-8.7,9.1-15.8c0-43.8,0-87.7,0-131.5c0-0.9-0.1-1.8-0.1-2.6c0-0.6,0.1-1.3,0.1-1.9c0-22.1,0-44.2,0-66.3
	c0-0.6-0.1-1.3-0.1-1.9c0-0.9,0.1-1.7,0.1-2.6c0-16,0-32,0-48c0-0.9,0.1-1.7,0.1-2.6c1,0.1,1.4-0.6,1.6-1.3c0.3-0.9,0.6-2,1-2.8
	c0.3-0.6,1-1.1,1.5-1.6C492.2,166.6,492.2,258.7,492.2,350.9L492.2,350.9z"/>
<path class="st1" d="M0.2,143.5c0.6-0.5,1.3-0.9,1.7-1.5c2.4-4.1,6-6.9,10-9c3.6-1.9,7.6-2.8,11.7-2.9c17.2-0.1,34.4,0,51.6,0h3.1
	c0.1-1.1,0.1-2,0.1-3c0-17.8-0.1-35.7,0-53.5c0-7.2,2-14,7.4-19.1c3.1-3,6.8-5.4,11.2-6.6c5-1.3,9.9-1.3,15-1.3h66
	c1,0,2.1,0,3.1,0.1c-0.2,1-0.3,2-0.6,3c-0.4,1.4-0.9,2.7-1.3,4.1c-1,0-1.9,0.1-2.9,0.1c-23.6,0-47.2,0-70.8,0
	c-3.4,0-6.8,0.6-9.7,2.2c-6.8,3.6-10.1,9.3-10.1,17c-0.1,18.2,0,36.5,0,54.7c0,0.7,0.1,1.4,0.1,2.3h11.1c1,0,2.1,0.1,3.1,0.1
	c-0.2,0.5-0.4,1-0.7,1.5c-1,1.7-1.9,3.5-1.7,5.6c-1,0-1.9,0.1-2.9,0.1c-22.7,0-45.4,0-68.1,0c-2.7,0-5.4,0.3-8.1,0.9
	c-3.4,0.7-6,2.6-8.4,4.9c-1.5,1.5-3,3.5-3.6,5.5c-0.9,2.7-1.4,5.6-1.4,8.4c-0.1,61.8,0,123.5,0,185.3c0,1-0.1,1.9-0.1,2.9
	c-1,0-1.3,0.7-1.6,1.4s-0.5,1.5-0.9,2.2c-0.3,0.6-0.2,1.7-1.3,1.7c0-0.8,0.1-1.6,0-2.3c-0.1-0.4-0.6-0.7-0.9-1.1
	C0.2,279.2,0.2,211.4,0.2,143.5L0.2,143.5z"/>
<path class="st2" d="M492.2,74.4c-0.5,0.5-1.1,1-1.5,1.6c-0.5,0.9-0.7,1.9-1,2.8c-0.3,0.8-0.6,1.4-1.6,1.3
	c-0.2-3.9-0.5-7.7-0.6-11.6s-2.1-6.9-4.7-9.4c-4-3.8-9-5.3-14.5-5.3c-20.4,0-40.7,0-61.1,0c-1,0-1.9-0.1-2.9-0.1
	c0.3-1,0.6-1.9,0.9-2.9c0.4-1.4,1.3-2.7,1-4.3c21.1,0,42.2-0.2,63.2,0.1c4.9,0.1,9.9,1.2,14.2,4.2c2.6,1.9,5.3,3.6,6.8,6.5
	c0.3,0.5,1.1,0.8,1.7,1.1C492.2,63.8,492.2,69.1,492.2,74.4z"/>
<path class="st3" d="M1.2,350.4c1.1,0,1-1.1,1.3-1.7c0.4-0.7,0.6-1.4,0.9-2.2c0.3-0.7,0.7-1.4,1.6-1.4c0,0.9,0.1,1.8,0.1,2.6
	c0,3.8,0.1,7.5,0.1,11.3c0,0.2-0.1,0.5-0.1,0.7V421c0,2.9,0.7,5.9,2.2,8.5c2.5,4.4,6.2,7.3,11.1,8.7c-0.8,2.1-1.6,4.2-2.4,6.3
	c-2,0-3.8-0.7-5.5-1.9c-0.4-0.3-0.9-0.7-1.4-0.9c-3-1.7-5.2-4.1-7-6.9c-0.5-0.7-0.7-1.9-2-1.8c0-27.4,0-54.7,0-82.1
	C0.6,350.7,0.9,350.6,1.2,350.4z"/>
<path class="st4" d="M1.2,350.4c-0.3,0.2-0.6,0.3-0.9,0.5c0-1.3,0-2.6,0-3.8c0.3,0.4,0.8,0.7,0.9,1.1C1.3,348.9,1.2,349.6,1.2,350.4
	L1.2,350.4z"/>
<path class="st5" d="M179.3,53.7c0.4-1.4,0.9-2.7,1.3-4.1c0.3-1,0.4-2,0.6-3c0.6,0,1.3-0.1,1.9-0.1h73.2c0.6,0,1.1,0,1.7,0.1
	c-0.2,0.8-0.3,1.7-0.5,2.5c-0.4,1.6-0.9,3.1-1.4,4.7c-0.7,0-1.4,0.1-2.1,0.1c-24.2,0-48.3,0-72.5,0C180.7,53.8,180,53.8,179.3,53.7z
	"/>
<path class="st6" d="M307,46.6h27.2h27c-0.3,1.1-0.7,2.2-1,3.3c-0.3,1.3-0.6,2.5-1,3.8c-0.6,0-1.1,0.1-1.7,0.1c-17,0-33.9,0-50.9,0
	c-0.6,0-1.1-0.1-1.7-0.1c0.3-1.2,0.7-2.4,1-3.5C306.4,49,306.7,47.8,307,46.6z"/>
<path class="st7" d="M307,46.6c-0.3,1.2-0.6,2.4-0.9,3.6s-0.7,2.4-1,3.5c-0.6,0-1.1,0.1-1.7,0.1c-15.2,0-30.4,0-45.6,0
	c-0.6,0-1.1-0.1-1.7-0.1c0.5-1.6,0.9-3.1,1.4-4.7c0.2-0.8,0.4-1.6,0.5-2.5c4.6,0,9.2-0.1,13.9-0.1C283.5,46.6,295.2,46.6,307,46.6
	L307,46.6z"/>
<path class="st8" d="M359.3,53.8c0.3-1.3,0.6-2.5,1-3.8c0.3-1.1,0.6-2.2,1-3.3h45.1c0.3,1.6-0.6,2.9-1,4.3c-0.3,1-0.6,1.9-0.9,2.9
	c-0.9,0-1.9,0.1-2.8,0.1c-2.9,0.1-5.8,0.1-8.7,0.1c-0.9,0-1.7-0.1-2.6-0.1c-8,0-16,0-24.1,0C363.9,53.9,361.6,53.8,359.3,53.8z"/>
<path class="st6" d="M177.8,446.4c-21,0-41.9,0-62.9,0c0.3-1.3,0.6-2.5,1-3.8c0.3-1.1,0.6-2.2,0.9-3.3c0.9,0,1.7-0.1,2.6-0.1h42.5
	c1,0,1.9-0.1,2.9-0.1s2,0.1,3.1,0.1c3.9,0,7.9,0.1,11.8,0.1c-0.3,1.1-0.7,2.2-1,3.3C178.5,443.8,178.2,445.1,177.8,446.4z"/>
<path class="st7" d="M116.9,439.2c-0.3,1.1-0.6,2.2-0.9,3.3c-0.3,1.3-0.7,2.5-1,3.8c-15.1,0-30.1,0-45.2,0c-4,0-8,0-11.9-0.1
	c0.4-1.4,0.8-2.8,1.2-4.2c0.3-1,0.5-1.9,0.7-2.9c0.6,0,1.1-0.1,1.7-0.1h53.8C115.8,439.1,116.3,439.2,116.9,439.2L116.9,439.2z"/>
<path class="st9" d="M177.8,446.4c0.3-1.3,0.6-2.5,1-3.8c0.3-1.1,0.6-2.2,1-3.3c0.6,0,1.1-0.1,1.7-0.1h53.3c0.6,0,1.1,0.1,1.7,0.1
	c-0.4,1.4-0.8,2.8-1.2,4.3c-0.3,1-0.5,1.9-0.8,2.9C215.6,446.4,196.7,446.4,177.8,446.4z"/>
<path class="st10" d="M234.5,446.4c0.3-1,0.5-1.9,0.8-2.9c0.4-1.4,0.8-2.8,1.2-4.3c0.6,0,1.1-0.1,1.7-0.1h50c0.6,0,1.1,0.1,1.7,0.1
	c-0.4,1.4-0.7,2.7-1.1,4.1c-0.4,1.2-1.2,1.7-2.5,1.7c-2.1-0.1-4.3,0-6.4,0c-1,0-2.1,0.1-2.4,1.4C263,446.4,248.7,446.4,234.5,446.4
	L234.5,446.4z"/>
<path class="st5" d="M59.8,439.2c-0.2,1-0.5,1.9-0.7,2.9c-0.4,1.4-0.8,2.8-1.2,4.2c-11.2,0-22.5,0.1-33.7,0c-2.7,0-5.6-0.3-8-1.8
	c0.8-2.1,1.6-4.2,2.4-6.3c3.5,0.8,7.1,0.8,10.7,0.8h27C57.4,439.1,58.6,439.2,59.8,439.2L59.8,439.2z"/>
<path class="st4" d="M277.2,446.4c0.3-1.3,1.4-1.4,2.4-1.4c2.1,0,4.3-0.1,6.4,0c1.3,0.1,2.1-0.5,2.5-1.7c0.4-1.4,0.7-2.7,1.1-4.1
	c0.6,0,1.1-0.1,1.7-0.1h36c0.6,0,1.1,0.1,1.7,0.1c-0.7,2.6-1.4,5.1-3.7,6.7c-0.1,0.1-0.1,0.3-0.1,0.4
	C309.2,446.4,293.2,446.4,277.2,446.4z"/>
<path class="st11" d="M414.7,344.6c0-1-0.1-1.9-0.1-2.9c0-49.1,0-98.1,0-147.2c1.1,0,2.2-0.1,3.4-0.2v9.8v9.6v9.8
	c0,3.2-0.1,6.3,0.1,9.5h4.7c0-17.4,0-34.7,0-52.1c-1.3,0-2.5,0-3.6,0c-0.6,1.7-1,3.3-1.7,4.8c-0.6,1.2-1.1,2.7-2.9,2.8
	c0-11.6,0.2-23.2,0-34.7c-0.1-5.9-2.2-11.2-6.4-15.6c-0.2-0.3-0.3-0.6-0.6-0.8c-5.5-4.8-11.8-7.5-19.1-7.5c-22.8,0-45.7,0-68.5,0
	c-0.6,0-1.3,0.1-1.9,0.1s-1.2-0.1-1.8-0.1c0.2-0.8,0.3-1.6,0.6-2.3c7.4-19.2,14.8-38.4,22.2-57.5c0.6-1.6,1.1-3.3,1.7-5h19.9h39.1
	h3.1h66.2c5.4,0,8,2.6,8,8v67.8v32.5v38.5V228v109.6c0,2-0.6,3.6-2.1,4.8c-1.6,1.3-3.4,2-5.5,2C451.1,344.6,432.9,344.6,414.7,344.6
	L414.7,344.6z"/>
<path class="st12" d="M329,439.2c-0.6,0-1.1-0.1-1.7-0.1c-12,0-24,0-36,0c-0.6,0-1.1,0.1-1.7,0.1s-1.1-0.1-1.7-0.1
	c-16.7,0-33.3,0-50,0c-0.6,0-1.1,0.1-1.7,0.1s-1.1-0.1-1.7-0.1c-17.8,0-35.5,0-53.3,0c-0.6,0-1.1,0.1-1.7,0.1
	c-3.9,0-7.9-0.1-11.8-0.1c-1,0-2-0.1-3.1-0.1c-0.3-1.4,0.8-1.9,1.7-2.6c2.8-2.2,5.6-4.3,8.4-6.6c0.5-0.4,0.7-1.3,1-2
	c1,0,2.1-0.1,3.1-0.1h59H388c5.5,0,8-2.5,8-8c0-47.4,0-94.8,0-142.3c0-28.5,0-56.9,0-85.4c1.6-0.1,2.4-1.4,3.5-2.2
	c2.3-1.8,5-3.1,6.6-5.6c0.1-0.2,0.6-0.2,0.9-0.3c0,0.9,0.1,1.8,0.1,2.6v234.6c0,7.2-3.2,12.4-9.4,15.8c-3.1,1.7-6.6,2.2-10.2,2.2
	c-18.7,0-37.4,0-56.1,0C330.8,439.1,329.9,439.2,329,439.2L329,439.2z"/>
<path class="st13" d="M414.7,344.6h54.7c2.1,0,3.9-0.6,5.5-2c1.5-1.3,2.1-2.8,2.1-4.8c0-36.5,0-73,0-109.6c0-5.4,0-10.7,0-16.1
	c0.4-0.2,0.9-0.3,1.2-0.6c1-0.9,2-1.9,3.1-2.9c0.7-0.6,1.5-1.2,2.2-1.8c1.5-1.1,3-2.2,4.5-3.3c0,0.9,0.1,1.8,0.1,2.6v131.5
	c0,7.1-3.1,12.3-9.1,15.8c-2.7,1.6-5.9,2.2-9,2.3c-18,0.1-36,0-54,0c-0.4,0-0.8-0.1-1.3-0.1C414.7,351.9,414.7,348.2,414.7,344.6
	L414.7,344.6z"/>
<path class="st14" d="M407.3,183.8c-0.3,0.1-0.7,0.1-0.9,0.3c-1.6,2.6-4.3,3.8-6.6,5.6c-1.1,0.9-2,2.1-3.5,2.2c0-0.9,0-1.8,0-2.6
	c0-11.4,0-22.7,0-34.1c0-3.1-1.5-5.4-4.5-6.3c-1.3-0.4-2.7-0.6-4-0.6c-42.6,0-85.2,0-127.9,0c-0.3,0-0.6,0-0.9,0
	c-0.7-1.7-2.2-1.9-3.7-1.9c-4.4,0-8.8,0-13.2,0c-0.6,0-1.1-0.2-2.2-0.3c2.6-2,4.6-3.7,6.8-5.2c1.8-1.3,1.8-1.3,1.2-3.5
	c7.5,0,14.9-0.1,22.4-0.1c2.9,0,5.9-0.1,8.8-0.1c0.9,0,1.7,0.1,2.6,0.1h31.5c1,0,1.9-0.1,2.9-0.1c0.9,0,1.8,0.1,2.6,0.1h68.8
	c5,0,9.7,1,13.6,4.4c1.4,1.2,2.5,2.6,3.8,3.9c1.8,3.1,2.5,6.5,2.5,10v25.6C407.3,182.1,407.3,183,407.3,183.8z"/>
<path class="st15" d="M476.9,141.1c0-22.6,0-45.2,0-67.8c0-5.4-2.6-8-8-8c-22.1,0-44.1,0-66.2,0c-1,0-2.1,0-3.1,0
	c-0.2-1.5-1.3-1.4-2.3-1.4c-4,0-8,0-12,0c-0.6,0-1.2-0.1-2.2-0.3c0.7-0.8,1.1-1.4,1.6-1.8c2.3-1.8,4.6-3.7,7-5.4
	c0.9-0.7,1.3-1.3,1.2-2.4c2.9,0,5.8-0.1,8.7-0.1c0.9,0,1.9-0.1,2.8-0.1c1,0,1.9,0.1,2.9,0.1h61.1c5.5,0,10.5,1.5,14.5,5.3
	c2.6,2.5,4.6,5.5,4.7,9.4s0.4,7.7,0.6,11.6c0,0.9-0.1,1.7-0.1,2.6v48c0,0.9-0.1,1.7-0.1,2.6c-0.4,0.2-0.9,0.3-1.3,0.6
	c-2.5,2-5,4.1-7.6,6.1C478.4,140.6,477.6,140.8,476.9,141.1L476.9,141.1z"/>
<path class="st16" d="M476.9,141.1c0.7-0.3,1.5-0.5,2.1-1c2.6-2,5.1-4.1,7.6-6.1c0.4-0.3,0.8-0.4,1.3-0.6c0,0.6,0.1,1.3,0.1,1.9
	v66.3c0,0.6-0.1,1.3-0.1,1.9c-1.5,1.1-3,2.2-4.5,3.3c-0.8,0.6-1.5,1.1-2.2,1.8c-1,0.9-2,2-3.1,2.9c-0.3,0.3-0.8,0.4-1.2,0.6
	c0-12.8,0-25.7,0-38.5C476.9,162.8,476.9,152,476.9,141.1L476.9,141.1z"/>
<path class="st9" d="M404.8,145.5c-1.3-1.3-2.4-2.7-3.8-3.9c-3.9-3.4-8.6-4.4-13.6-4.4c-22.9,0-45.8,0-68.8,0
	c-0.9,0-1.8-0.1-2.6-0.1c0.2-1,0.3-2,0.6-3c0.4-1.4,0.9-2.7,1.3-4c0.6,0,1.3-0.1,1.9-0.1h68.5c7.4,0,13.7,2.7,19.1,7.5
	c0.2,0.2,0.4,0.5,0.6,0.8c-1.2-0.1-1.7,0.6-2.1,1.6C405.3,141.7,404.6,143.5,404.8,145.5L404.8,145.5z"/>
<path class="st5" d="M414.5,188.6c1.8-0.1,2.3-1.6,2.9-2.8c0.7-1.5,1.1-3.1,1.7-4.8h3.6v52.1c-1.5,0-2.9,0-4.7,0
	c-0.1-3.1,0-6.3-0.1-9.5c0-3.3,0-6.6,0-9.8s0-6.4,0-9.6s0-6.4,0-9.8c-1.3,0.1-2.4,0.1-3.4,0.2C414.5,192.5,414.5,190.6,414.5,188.6
	L414.5,188.6z"/>
<path class="st17" d="M340.7,65.3c-0.6,1.7-1.1,3.3-1.7,5c-7.4,19.2-14.8,38.4-22.2,57.5c-0.3,0.7-0.4,1.5-0.6,2.3
	c-11.5,0-23.1,0-34.6,0.1c-18.4,0-36.8,0-55.2,0c-19.4,0-38.7,0-58.1,0c-22.7,0-45.4,0-68.2,0c-1,0-2.1-0.1-3.1-0.1
	c0-1,0.1-2.1,0.1-3.1c0-18,0.1-36,0-54c0-3.6,2.1-6.5,5.8-7.4c0.9-0.2,1.9-0.2,2.9-0.2h70.8C231.2,65.3,286,65.3,340.7,65.3z
	 M135.7,92.5c0.4-5.6-4.1-13-12.5-13c-7.9-0.1-12.9,6.1-12.9,13c0,8.5,7.1,12.9,12.7,12.9C130.1,105.4,136.1,98.9,135.7,92.5z
	 M164,105.2c7.1,0,12.9-5.7,12.7-12.8c-0.2-7.2-5.2-13-12.9-12.9c-8.4,0.1-12.6,7.2-12.6,13C151.3,99.3,157.2,105.6,164,105.2z
	 M204.9,105.3c7.1,0,12.7-5.7,12.7-12.8s-5.7-12.9-12.6-13c-7.1-0.1-12.8,5.8-12.8,13C192.2,99.6,197.8,105.3,204.9,105.3
	L204.9,105.3z"/>
<path class="st18" d="M247.9,137.3c0.6,2.2,0.5,2.2-1.2,3.5c-2.2,1.6-4.2,3.3-6.8,5.2c1.1,0.2,1.6,0.3,2.2,0.3h13.2
	c1.5,0,3,0.2,3.7,1.9c-1.6,0-3.2,0.1-4.8,0.1c-76,0-152.1,0-228.1,0c-0.8,0-1.6,0-2.4,0c-4.1,0.3-7.6,3.4-7.2,7.6
	c0.1,0.6,0,1.3,0,1.9v187.4c0,2.8-0.1,5.6-0.2,8.4c-0.7-0.3-1.4-0.6-2.3-0.9c-1.9,1.5-3.7,3.1-5.7,4.5c-0.9,0.7-2,1.1-3.1,1.6
	c0-3.8-0.1-7.5-0.1-11.3c0-0.9-0.1-1.8-0.1-2.6c0-1,0.1-1.9,0.1-2.9c0-61.8,0-123.5,0-185.3c0-2.8,0.5-5.8,1.4-8.4
	c0.7-2,2.1-4,3.6-5.5c2.3-2.3,5-4.2,8.4-4.9c2.7-0.6,5.3-0.9,8.1-0.9h68.1c1,0,1.9-0.1,2.9-0.1c0.6,0,1.3,0.1,1.9,0.1h64.3
	c0.6,0,1.3-0.1,1.9-0.1s1.3,0.1,1.9,0.1h54.3c0.6,0,1.3-0.1,1.9-0.1c1.3,0,2.7,0.1,4,0.1C234.6,137.3,241.3,137.3,247.9,137.3
	L247.9,137.3z"/>
<path class="st19" d="M340.7,65.3c-54.7,0-109.4,0-164.1,0c-23.6,0-47.2,0-70.8,0c-1,0-1.9-0.1-2.9,0.2c-3.7,0.9-5.9,3.8-5.8,7.4
	c0.1,18,0,36,0,54c0,1-0.1,2.1-0.1,3.1c-3.7,0-7.3,0-11.1,0c0-0.9-0.1-1.6-0.1-2.3c0-18.2,0-36.5,0-54.7c0-7.6,3.4-13.4,10.1-17
	c3-1.6,6.3-2.2,9.7-2.2h70.8c1,0,1.9-0.1,2.9-0.1c0.7,0,1.4,0.1,2.1,0.1h72.5c0.7,0,1.4-0.1,2.1-0.1c0.6,0,1.1,0.1,1.7,0.1h45.6
	c0.6,0,1.1-0.1,1.7-0.1s1.1,0.1,1.7,0.1h50.9c0.6,0,1.1-0.1,1.7-0.1c2.3,0,4.6,0.1,6.9,0.1h24.1c0.9,0,1.7,0.1,2.6,0.1
	c0.1,1-0.3,1.7-1.2,2.4c-2.4,1.7-4.7,3.6-7,5.4c-0.5,0.4-0.9,1-1.6,1.8c1,0.1,1.6,0.3,2.2,0.3h12c1.1,0,2.2-0.1,2.3,1.4
	c-13,0-26,0-39.1,0C353.9,65.3,347.3,65.3,340.7,65.3L340.7,65.3z"/>
<path class="st5" d="M165.8,137.1c-0.6,0-1.3,0.1-1.9,0.1c-21.4,0-42.9,0-64.3,0c-0.6,0-1.3-0.1-1.9-0.1c-0.2-2.1,0.7-3.8,1.7-5.6
	c0.3-0.5,0.5-1,0.7-1.5h68.2c-0.1,0.4-0.3,0.7-0.4,1.1C167.2,133.2,166.5,135.1,165.8,137.1L165.8,137.1z"/>
<path class="st20" d="M5.2,359c1-0.5,2.2-0.9,3.1-1.6c2-1.4,3.8-3,5.7-4.5c0.8,0.3,1.5,0.6,2.3,0.9c0.1,5.4,0.2,10.9,0.2,16.3
	c0,16.8,0.1,33.6-0.1,50.4c0,3.4,2.7,7.2,7.1,7.3h1.7H150c0.9,0,1.7-0.1,2.6-0.2c1.2,0,2.4,0.1,3.6,0.1c6.6,0,13.2,0.1,19.8,0.1
	c-0.3,0.7-0.5,1.6-1,2c-2.7,2.3-5.6,4.4-8.4,6.6c-0.8,0.7-2,1.2-1.7,2.6c-1,0-1.9,0.1-2.9,0.1c-14.2,0-28.3,0-42.5,0
	c-0.9,0-1.7,0.1-2.6,0.1c-0.6,0-1.1-0.1-1.7-0.1c-17.9,0-35.9,0-53.8,0c-0.6,0-1.1,0.1-1.7,0.1c-1.2,0-2.4-0.1-3.6-0.1
	c-9,0-18,0-27,0c-3.6,0-7.2,0-10.7-0.8c-4.9-1.4-8.6-4.4-11.1-8.7c-1.5-2.6-2.2-5.6-2.2-8.5c-0.1-20.4-0.1-40.9,0-61.3
	C5.1,359.5,5.2,359.3,5.2,359L5.2,359z"/>
<path class="st8" d="M281.5,130.1c11.5,0,23.1,0,34.6-0.1c0.6,0,1.2,0.1,1.8,0.1c-0.4,1.3-0.9,2.7-1.3,4c-0.3,1-0.4,2-0.6,3
	c-1,0-1.9,0.1-2.9,0.1c-10.5,0-21,0-31.5,0c-0.9,0-1.7-0.1-2.6-0.1c0.2-1,0.3-2,0.6-3C280.2,132.8,280.9,131.4,281.5,130.1z"/>
<path class="st11" d="M175.9,427.8c-6.6,0-13.2,0-19.8-0.1c-1.2,0-2.4-0.1-3.6-0.1c0.2-0.6,0.4-1.2,0.7-1.8
	c10.7-27.7,21.4-55.4,32.1-83.2c4-10.4,8.1-20.8,12.2-31.3c0.5-1.3,1.1-2.6,1.6-3.9c0.9-2.5,1.9-5,2.8-7.5c1.5-4,3.1-8.1,4.6-12.1
	c0.9-2.4,1.7-4.7,2.6-7.1c0.1,0.5,0.4,1.1,0.4,1.6c-0.1,4-0.4,8-0.4,12c0.1,4.7,0.9,9.2,2.9,13.5c2,4.1,4.9,7.4,9.4,8.7
	c8.5,2.5,17.5,0.4,21.7-10.1c0.5-1.2,0.9-2.4,1.1-3.7c1.6-7.1,1.7-14.3,0.6-21.5c-0.5-3.4-1.5-6.5-3.1-9.5c-5.8-11-20.4-10-26-4.1
	c-0.4,0.4-1,0.8-1.4,1.2c0.2-1,0.3-2.1,0.7-3.1c7.6-19.9,15.3-39.8,23-59.7c7.1-18.4,14.2-36.8,21.3-55.2c0.3-0.8,0.3-1.7,0.5-2.5
	h127.9c1.3,0,2.7,0.2,4,0.6c3,0.9,4.5,3.2,4.5,6.3v34.1v2.6v85.4v142.3c0,5.5-2.5,8-8,8c-50.1,0-100.1,0-150.2,0
	c-19.7,0-39.3,0-59,0C178,427.7,177,427.8,175.9,427.8L175.9,427.8z M274.9,290.2h0.4c0,1.8-0.1,3.5,0,5.3c0.3,4.7,1.1,9.2,3.4,13.4
	c3.1,5.6,7.9,8.4,14.3,8.5c6.6,0.1,11.7-2.4,14.9-8.2c1.1-1.9,1.9-4.1,2.4-6.2c1.7-7.2,1.8-14.4,0.7-21.7c-0.5-3.4-1.4-6.6-3.1-9.5
	c-1.9-3.4-4.6-6.2-8.5-7.4c-8.8-2.7-17.6-0.2-21.7,9.7c-0.7,1.6-1.3,3.3-1.5,5C275.7,282.8,275.3,286.5,274.9,290.2L274.9,290.2z
	 M342.1,316.3c0-17.4,0-34.7,0-52.1c-1.3,0-2.5,0-3.7,0c-0.3,1.1-0.5,2.2-0.9,3.3c-1.1,3.4-3.4,5.5-7,6.1c-1.5,0.3-3,0.3-4.5,0.5
	c-0.8,0.1-1.5,0.1-2.4,0.2v3.3h13.7v7.8v7.7v7.9v7.7c0,2.5-0.1,5,0,7.6H342.1z M263.5,286.9c0-2.7,0-5.2,0-7.8c-2.1,0-4,0-6.1,0v7.8
	H263.5z M257.4,308.6v7.6h6.1c0-2.6,0-5.1,0-7.6C261.4,308.6,259.4,308.6,257.4,308.6z"/>
<path class="st17" d="M259.8,148.3c-0.2,0.8-0.2,1.7-0.5,2.5c-7.1,18.4-14.2,36.8-21.3,55.2c-7.7,19.9-15.4,39.8-23,59.7
	c-0.4,1-0.5,2.1-0.7,3.1c-0.3,0.2-0.5,0.3-0.8,0.5c-0.9,2.1-2,4.1-2.6,6.3c-0.5,1.8-1,3.5-1.9,5.2c-0.9,2.4-1.7,4.7-2.6,7.1
	c-1.5,4-3.1,8.1-4.6,12.1c-0.1-0.5-0.3-1-0.3-1.5c0.1-4.5,0.4-9.1,0.2-13.6c-0.2-4.6-1.2-9-3.4-13.1c-5.1-9.2-17.7-11.4-25.6-4.4
	c-2.7,2.4-4.4,5.5-5.4,8.9c-2.2,7.7-2.3,15.4-1.2,23.3c0.5,3.4,1.4,6.6,3,9.5c5.3,9.6,18.7,11.5,26.5,3.8c0.5-0.5,1.2-0.9,1.9-1.4
	c-4.1,10.4-8.1,20.8-12.2,31.3c-10.7,27.7-21.4,55.4-32.1,83.2c-0.2,0.6-0.4,1.2-0.7,1.8c-0.9,0.1-1.7,0.2-2.6,0.2
	c-41.6,0-83.2,0-124.8,0c-0.6,0-1.1,0-1.7,0c-4.3-0.1-7.1-3.9-7.1-7.3c0.1-16.8,0.1-33.6,0.1-50.4c0-5.4-0.1-10.9-0.2-16.3
	c0.1-2.8,0.2-5.6,0.2-8.4c0-62.5,0-124.9,0-187.4c0-0.6,0.1-1.3,0-1.9c-0.4-4.3,3.1-7.4,7.2-7.6c0.8-0.1,1.6,0,2.4,0h228.1
	c1.6,0,3.2-0.1,4.8-0.1C259.3,148.3,259.5,148.3,259.8,148.3L259.8,148.3z M135.6,289.2c-0.1-1.6-0.3-4.5-0.6-7.3
	c-0.4-3.6-1.5-7-3.2-10.2c-5.9-11.1-23.1-11-28.8-0.3c-1.2,2.3-2.2,4.8-2.8,7.3c-1.4,6-1.4,12.2-0.9,18.4c0.4,4.2,1.3,8.4,3.4,12.1
	c5.1,9.1,18,11.2,25.7,4.2c3-2.7,4.7-6.2,5.7-10.1C135.2,299.1,135.5,294.8,135.6,289.2L135.6,289.2z M91.9,290.5
	c0-1.8,0.1-3.7,0-5.5c-0.3-4.5-1.2-8.8-3.3-12.9c-5.7-11.3-21.5-10.9-27.5-3c-2.3,3.1-3.8,6.5-4.5,10.2c-1.3,6.6-1.4,13.3-0.4,20
	c0.5,3.3,1.5,6.5,3,9.5c5.5,11,22,11.1,28,2.2c1.2-1.8,2.2-3.7,2.9-5.7C91.8,300.6,92,295.5,91.9,290.5L91.9,290.5z M111.6,175.6
	c0,7.2,5.6,13,12.6,13c7.1,0,12.9-5.8,12.9-13c0-7.1-5.7-12.9-12.7-12.9C117.2,162.7,111.6,168.4,111.6,175.6z M55.1,175.8
	c0.4-6.4-5.1-13-12.5-13.1c-7,0-12.9,5.6-13,12.7c0,8.3,6.6,13.2,12.7,13.2C49.6,188.7,55.3,182.4,55.1,175.8L55.1,175.8z
	 M70.7,175.6c-0.3,7.1,5.9,13,12.6,13c6.2,0,12.9-4.9,12.8-13.1c-0.1-8.1-6.7-12.9-12.8-12.8C76.2,162.8,70.7,168.4,70.7,175.6
	L70.7,175.6z M153.6,279.1c-2.2,0-4.2,0-6.2,0v7.8c2.2,0.2,4.2,0.3,6.2-0.1C153.6,284.2,153.6,281.7,153.6,279.1L153.6,279.1z
	 M153.6,316.3c0-2.7,0-5.1,0-7.6c-2.1,0-4.1,0-6.2,0c0,2.6-0.2,5.1,0.1,7.6H153.6z"/>
<path class="st6" d="M281.5,130.1c-0.6,1.4-1.3,2.7-1.8,4.1c-0.3,0.9-0.4,2-0.6,3c-2.9,0-5.9,0.1-8.8,0.1c-7.5,0-14.9,0.1-22.4,0.1
	c-6.7,0-13.3-0.1-20-0.1c-1.3,0-2.7-0.1-4-0.1c0.2-1,0.3-2,0.6-3c0.5-1.4,1.2-2.7,1.8-4.1H281.5z"/>
<path class="st21" d="M135.7,92.5c0.4,6.5-5.6,12.9-12.7,12.8c-5.6,0-12.7-4.4-12.7-12.9c0-6.9,5-13,12.9-13
	C131.6,79.5,136.1,86.8,135.7,92.5L135.7,92.5z"/>
<path class="st22" d="M164,105.2c-6.8,0.3-12.7-5.9-12.8-12.8c0-5.8,4.2-12.9,12.6-13c7.7-0.1,12.8,5.8,12.9,12.9
	C176.9,99.5,171.1,105.2,164,105.2z"/>
<path class="st23" d="M204.9,105.3c-7.1,0-12.7-5.6-12.7-12.8c0-7.3,5.8-13.1,12.8-13s12.7,6,12.6,13
	C217.6,99.5,212,105.2,204.9,105.3L204.9,105.3z"/>
<path class="st7" d="M226.3,130.1c-0.6,1.4-1.3,2.7-1.8,4.1c-0.3,0.9-0.4,2-0.6,3c-0.6,0-1.3,0.1-1.9,0.1c-18.1,0-36.2,0-54.3,0
	c-0.6,0-1.3-0.1-1.9-0.1c0.7-2,1.3-4,2-5.9c0.1-0.4,0.3-0.7,0.4-1.1C187.6,130.1,207,130.1,226.3,130.1L226.3,130.1z"/>
<path class="st5" d="M209,280.7c0.9-1.6,1.4-3.4,1.9-5.2c0.7-2.1,1.7-4.2,2.6-6.3c0.3-0.2,0.5-0.3,0.8-0.5c0.5-0.4,1-0.7,1.4-1.2
	c5.6-5.9,20.2-6.9,26,4.1c1.6,3,2.6,6.2,3.1,9.5c1,7.2,1,14.3-0.6,21.5c-0.3,1.2-0.7,2.5-1.1,3.7c-4.1,10.5-13.2,12.6-21.7,10.1
	c-4.5-1.3-7.4-4.6-9.4-8.7c-2-4.3-2.8-8.8-2.9-13.5c-0.1-4,0.3-8,0.4-12C209.4,281.8,209.2,281.3,209,280.7z M213.7,291
	c0.1,1.3,0.1,3.2,0.3,5.1c0.4,4.3,1.3,8.5,3.6,12.3c4.2,6.8,15.3,7,19.4-0.2c1.2-2.2,2.2-4.6,2.8-7.1c1.4-6.5,1.4-13.2,0.3-19.8
	c-0.4-2.9-1.3-5.6-2.8-8.1c-4.3-7.6-15.6-7.6-19.8-0.4c-0.8,1.4-1.6,3-2.1,4.5C213.9,281.6,213.8,286,213.7,291z"/>
<path class="st5" d="M274.9,290.2c0.4-3.7,0.8-7.5,1.4-11.2c0.3-1.7,0.9-3.4,1.5-5c4.1-9.8,13-12.3,21.7-9.7
	c3.9,1.2,6.5,3.9,8.5,7.4c1.7,3,2.6,6.2,3.1,9.5c1,7.3,1,14.5-0.7,21.7c-0.5,2.1-1.4,4.3-2.4,6.2c-3.2,5.8-8.3,8.4-14.9,8.2
	c-6.4-0.1-11.2-2.9-14.3-8.5c-2.3-4.1-3.1-8.7-3.4-13.4c-0.1-1.8,0-3.5,0-5.3C275.2,290.2,275,290.2,274.9,290.2L274.9,290.2z
	 M279.9,291.1c0.1,1.4,0.1,3.3,0.3,5.2c0.3,3.5,0.9,7,2.5,10.2c2.2,4.4,5.6,7,10.8,7s8.6-2.6,10.7-7c0.8-1.8,1.5-3.7,1.9-5.7
	c1.3-6.3,1.3-12.7,0.3-19.1c-0.5-3.1-1.4-6-3-8.8c-4.2-7.2-15.4-7.3-19.6-0.2c-0.8,1.4-1.6,3-2.1,4.5
	C280.1,281.6,280,286.1,279.9,291.1L279.9,291.1z"/>
<path class="st19" d="M197.5,311.4c-0.6,0.5-1.3,0.9-1.9,1.4c-7.8,7.7-21.2,5.8-26.5-3.8c-1.6-3-2.5-6.2-3-9.5
	c-1.1-7.8-1-15.6,1.2-23.3c1-3.4,2.7-6.5,5.4-8.9c7.9-6.9,20.5-4.7,25.6,4.4c2.3,4.1,3.3,8.5,3.4,13.1c0.2,4.5-0.2,9.1-0.2,13.6
	c0,0.5,0.2,1,0.3,1.5c-0.9,2.5-1.8,5-2.8,7.5C198.5,308.8,198,310.1,197.5,311.4L197.5,311.4z M197.4,290.7c-0.3-3-0.4-6.1-0.8-9.1
	c-0.6-4.3-1.9-8.3-5.2-11.3c-4.1-3.8-11.3-3.7-15.3,0.1c-2.2,2-3.6,4.6-4.3,7.4c-2.1,8.4-2.1,16.8-0.1,25.2c0.7,2.8,2,5.4,4.1,7.5
	c4.3,4.2,11.8,4.2,16-0.1c1.8-1.9,3-4.1,3.8-6.6C196.9,299.5,197.2,295.1,197.4,290.7z"/>
<path class="st5" d="M342.1,316.3c-1.5,0-2.9,0-4.7,0c-0.1-2.5,0-5.1,0-7.6c0-2.6,0-5.1,0-7.7s0-5.3,0-7.9s0-5.1,0-7.7
	c0-2.5,0-5.1,0-7.8c-4.7,0-9.1,0-13.7,0c0-1.2,0-2.2,0-3.3c0.8-0.1,1.6-0.1,2.4-0.2c1.5-0.1,3-0.2,4.5-0.5c3.6-0.6,5.9-2.7,7-6.1
	c0.3-1,0.6-2.1,0.9-3.3h3.7C342.1,281.6,342.1,298.9,342.1,316.3L342.1,316.3z"/>
<path class="st1" d="M263.5,286.9c-2.1,0-4,0-6.1,0c0-2.6,0-5.2,0-7.8h6.1V286.9z"/>
<path class="st1" d="M257.4,308.6h6.1v7.6c-2,0-4,0-6.1,0C257.4,313.8,257.4,311.3,257.4,308.6z"/>
<path class="st19" d="M135.6,289.2c-0.1,5.6-0.4,9.9-1.5,14.1c-1,3.9-2.7,7.4-5.7,10.1c-7.7,7-20.6,4.8-25.7-4.2
	c-2.1-3.8-3.1-7.9-3.4-12.1c-0.5-6.2-0.6-12.3,0.9-18.4c0.6-2.5,1.6-5,2.8-7.3c5.7-10.7,22.9-10.8,28.8,0.3
	c1.7,3.2,2.8,6.6,3.2,10.2C135.3,284.7,135.5,287.6,135.6,289.2L135.6,289.2z M103.6,290.4c0.3,2.9,0.4,5.9,0.8,8.8
	c0.4,3.3,1.5,6.3,3.2,9.2c4.1,6.7,14.9,6.8,19.1,0.2c1.5-2.4,2.5-5,3.1-7.7c1.2-6.3,1.2-12.6,0.3-18.9c-0.5-3.5-1.6-6.8-3.6-9.8
	c-4.1-6.1-14-6-18-0.9c-1.5,1.9-2.6,3.9-3.3,6.1C104,281.6,103.8,286,103.6,290.4L103.6,290.4z"/>
<path class="st19" d="M91.9,290.5c0.2,5-0.1,10.1-1.9,14.9c-0.7,2-1.7,4-2.9,5.7c-6,8.9-22.5,8.8-28-2.2c-1.5-3-2.5-6.2-3-9.5
	c-1-6.7-0.9-13.4,0.4-20c0.7-3.7,2.2-7.1,4.5-10.2c6-7.9,21.8-8.3,27.5,3c2.1,4.1,2.9,8.4,3.3,12.9C92,286.8,91.9,288.6,91.9,290.5
	L91.9,290.5z M87.4,290.6c-0.3-3-0.4-6.1-0.8-9.1c-0.6-4-1.8-7.8-4.7-10.8c-4.2-4.3-11.8-4.4-16-0.1c-2.1,2.1-3.4,4.6-4.1,7.5
	c-2,7.9-2,15.8-0.3,23.8c0.7,3.2,2,6.2,4.4,8.6c4.3,4.2,11.8,4.1,16-0.2c1.8-1.8,2.9-4,3.7-6.4C87,299.6,87.3,295.1,87.4,290.6z"/>
<path class="st23" d="M111.6,175.6c0-7.2,5.6-12.9,12.7-12.9c7,0,12.7,5.8,12.7,12.9c0,7.2-5.8,13.1-12.9,13
	C117.1,188.6,111.5,182.8,111.6,175.6z"/>
<path class="st21" d="M55.1,175.8c0.3,6.6-5.5,12.9-12.7,12.8c-6.1,0-12.7-4.9-12.7-13.2c0-7.1,5.9-12.7,13-12.7
	C50,162.8,55.4,169.4,55.1,175.8L55.1,175.8z"/>
<path class="st22" d="M70.7,175.6c0-7.2,5.5-12.8,12.6-12.9c6.1-0.1,12.7,4.8,12.8,12.8c0.1,8.2-6.7,13.1-12.8,13.1
	C76.6,188.6,70.4,182.8,70.7,175.6L70.7,175.6z"/>
<path class="st14" d="M153.6,279.1v7.6c-2,0.4-4,0.3-6.2,0.1c0-2.6,0-5.1,0-7.8C149.5,279.1,151.4,279.1,153.6,279.1L153.6,279.1z"
	/>
<path class="st19" d="M153.6,316.3c-2,0-3.9,0-6.1,0c-0.2-2.5-0.1-5-0.1-7.6h6.2L153.6,316.3z"/>
<path class="st11" d="M214.4,268.8c-0.3,0.2-0.5,0.3-0.8,0.5C213.8,269.1,214.1,269,214.4,268.8z"/>
<path class="st24" d="M213.7,291c0.1-5,0.2-9.4,1.7-13.6c0.5-1.6,1.3-3.1,2.1-4.5c4.2-7.1,15.5-7.2,19.8,0.4
	c1.4,2.5,2.3,5.3,2.8,8.1c1,6.6,1.1,13.3-0.3,19.8c-0.5,2.5-1.5,4.9-2.8,7.1c-4.1,7.2-15.2,7-19.4,0.2c-2.3-3.8-3.2-8-3.6-12.3
	C213.7,294.2,213.7,292.3,213.7,291z"/>
<path class="st24" d="M279.9,291.1c0.1-5,0.2-9.5,1.7-13.8c0.5-1.6,1.2-3.1,2.1-4.5c4.3-7.2,15.4-7.1,19.6,0.2
	c1.6,2.7,2.5,5.7,3,8.8c0.9,6.4,1,12.7-0.3,19.1c-0.4,1.9-1,3.9-1.9,5.7c-2.1,4.5-5.5,7-10.7,7s-8.6-2.6-10.8-7
	c-1.6-3.2-2.2-6.7-2.5-10.2C280,294.4,280,292.5,279.9,291.1L279.9,291.1z"/>
<g>
	<path class="st25" d="M197.4,290.7c-0.2,4.4-0.4,8.8-1.8,13c-0.8,2.5-1.9,4.7-3.8,6.6c-4.2,4.3-11.8,4.3-16,0.1
		c-2.1-2.1-3.4-4.6-4.1-7.5c-2-8.4-2-16.8,0.1-25.2c0.7-2.8,2.1-5.3,4.3-7.4c4-3.8,11.3-3.8,15.3-0.1c3.3,3.1,4.6,7.1,5.2,11.3
		C197,284.6,197.1,287.7,197.4,290.7z"/>
	<path class="st25" d="M103.6,290.4c0.2-4.4,0.4-8.8,1.8-13.1c0.7-2.2,1.8-4.2,3.3-6.1c4-5.1,13.9-5.2,18,0.9c2,3,3.1,6.3,3.6,9.8
		c0.9,6.3,0.9,12.6-0.3,18.9c-0.5,2.8-1.5,5.3-3.1,7.7c-4.2,6.6-15,6.6-19.1-0.2c-1.8-2.9-2.8-5.9-3.2-9.2
		C104,296.3,103.9,293.4,103.6,290.4L103.6,290.4z"/>
	<path class="st25" d="M87.4,290.6c-0.2,4.5-0.5,9-1.8,13.3c-0.8,2.4-1.9,4.6-3.7,6.4c-4.2,4.3-11.7,4.4-16,0.2
		c-2.4-2.4-3.8-5.4-4.4-8.6c-1.7-7.9-1.7-15.9,0.3-23.8c0.7-2.8,2-5.4,4.1-7.5c4.3-4.2,11.8-4.1,16,0.1c2.9,3,4.2,6.8,4.7,10.8
		C87.1,284.5,87.2,287.6,87.4,290.6z"/>
</g>
</svg>
