<?xml version="1.0" encoding="utf-8"?>
<!-- Generator: Adobe Illustrator 21.1.0, SVG Export Plug-In . SVG Version: 6.00 Build 0)  -->
<svg version="1.1" id="Layer_1" xmlns="http://www.w3.org/2000/svg" xmlns:xlink="http://www.w3.org/1999/xlink" x="0px" y="0px"
	 viewBox="0 0 2244.5 2218.4" style="enable-background:new 0 0 2244.5 2218.4;" xml:space="preserve">
<style type="text/css">
	.st0{fill:none;}
	.st1{fill:#212120;}
	.st2{fill:#ECBA9E;}
	.st3{fill:#F6C2A1;}
	.st4{fill:#293237;}
	.st5{fill:#4A362F;}
	.st6{fill:#EFBB9E;}
	.st7{fill:#3A484F;}
	.st8{fill:#ECAB46;}
	.st9{fill:#E4E9EE;}
	.st10{fill:#EDE5DE;}
</style>
<path class="st0" d="M2,0h2244.5v2144.5H2V0z"/>
<g>
	<path class="st1" d="M708.5,1953.9c-16.8,50.9-31.8,271.3-37.9,291.2c0,0.1-0.1,0.4-0.1,0.9c0.7,13.7,122.1,15.6,218.1,16.5
		c407.9,3.6,357.4-12.1,440.1-0.9c115,15.5,219.6,46.7,241.3-0.5c4.6-9.9,3-37.3-0.2-91.7c-2.8-47.7-6.9-90.1-7.9-97.3
		C1541.9,1932.6,772,1761.5,708.5,1953.9L708.5,1953.9z"/>
	<path class="st1" d="M720.3,1066.6c-0.7-2.4,59-25.5,148.9-49.1c34.9-9.2,57.9-14.2,85.5-17.2c26-2.8,47.5-3.5,67.6-2.9
		c89.1,2.6,230.4,16.5,320.9,41.2c0,0,12.5,3.5,29.1,7.8c27.1,7.1,47.1,11.8,53.2,13.3c19.7,4.8,50.7,12.9,99.3,27.7
		c-14.9,1.1-22.7,2.3-27.1,3.4c-0.8,0.2-9,2-9,2c-25,206.2-25.4,209.7-25.4,209.7c-0.6,4.5-2.6,18.6-4.5,37.1
		c-0.8,7.7-1.7,15.9-2.4,24.7c-0.8,8.5-1.1,13.8-1.8,21c-2.2,22.7-4.9,40.8-5.4,43.9c-8.1,54.1,62.3,381.9-34.1,468.8
		c-28.3,25.6-100,16.3-243.3-2.2c-142.2-18.3-222.1-55.2-241.5-84.8c-2.4-3.6-10.8-17.8-26.7-22.6c-17.4-5.4-33.1,3.8-42.7,7.4
		c-39,15-99.8-11.5-121.4-39.7c-57.3-75,72.2-281.7,72.2-281.7c-1.2-70.7-0.3-199.9-12.2-276.3c-7.3-46.7-11-70.1-28.3-92
		c-8.2-10.4-7.6-32.3-22.6-39.3C735.2,1060.5,720.7,1067.8,720.3,1066.6L720.3,1066.6z"/>
	<path class="st1" d="M768.2,1061.4c-32.1-15.1-90.5,24.4-119.3,70.7c-16.9,27.2-21.1,52.8-22.4,61.7
		c-19.3,129.3-29.1,194.1-32.3,245.1c-11,175.6-43.6,266.4-19.9,274.8c12.6,4.5,20.3-21.7,59.3-43.9c0.1,0,42.9-3.9,237.8-21.8
		c-0.7-11.8-1.9-28.7-3.4-48.9c-2.9-36.6-8-102.9-18.3-175.8c-9.4-66.9-10.5-49.4-22.3-128.5c-2.3-15.3-12.1-81.5-29.7-160.6
		C785.3,1078.8,780.1,1067.1,768.2,1061.4L768.2,1061.4z"/>
	<path class="st1" d="M1460.7,1068.5c167.4,43.9,208.2,90.2,213.3,125c2,14.1-1.3,29.2,2.1,67.7c4.1,45.2,13.4,75.3,18.6,95.6
		c32,124.3-17.8,156.5,0.7,306.7c1.6,13,4.4,32.8-6,39.8c-19.1,12.8-62.5-30-127.1-65.4c-86.8-47.6-119.2-20.7-147.6-53.5
		c-39.6-45.8-1.9-117.4,24.1-243.1C1452,1277.4,1465.1,1185,1460.7,1068.5z"/>
</g>
<path class="st2" d="M1213.8,862.5l21.4,5.4l28.4-45.9l7.1-56.5l-0.1-28.2l-48.1,0.1L1213.8,862.5z"/>
<path class="st2" d="M981.5,988.5c2.1,11.4,5.9,27.6,12.4,46.3c9.4,26.6,23.5,67,52.4,94c48.1,44.8,140.3,55.4,198.1,14.5
	c32.1-22.7,44.7-54.8,49-65.8c20.9-53.3-6.1-76.7,8.8-162.8c4.3-24.7,8.7-35.6,1.4-43.3c-5.9-6.2-20.2-11.3-127.4,28.7
	c-32.6,12.1-60.1,22.4-99.7,40.5C1037.1,958.6,1004.8,975.6,981.5,988.5L981.5,988.5z"/>
<path class="st3" d="M860.6,529.1c27.3-7.8,69.9-16.6,121.9-13.2c26.3,1.6,72.4,4.6,118.9,28.6c79,40.9,136.5,131.2,133.6,226.7
	c-0.7,22.9-1.7,74.5-37.6,120.6c-7,8.9-27,32.8-89,61.9c-82.4,38.8-158.3,75.6-205.7,44.2c-22.3-14.9-35-59.3-60.4-148.3
	c-3-10.7-6.6-24.2-7.6-41.8c-0.9-16.6,1.5-24,3.2-51.9c0.9-14,1.7-31.4,2.7-53.6c1.6-37.4,1.4-46,3-65.7
	C845.6,609.2,850.2,572.5,860.6,529.1L860.6,529.1z"/>
<path class="st4" d="M970.7,769.2c-11.5,1.2-17.3,1.7-22.5,1.1c-4.7-0.6-15.3-1.8-24-8.4c-11.2-8.5-13.7-21.4-16.8-37.1
	c-1.5-7.7-2.9-19-1.9-32.9c-4.5-0.2-9-0.5-13.5-0.7c-0.2,5.3-0.8,13.1-2.2,22.6c-2.3,15.8-3.4,23.8-7.9,30.8
	c-1.3,2-9.8,14.7-26.2,19c-6.3,1.6-11.3,1.3-16.2,1.1c-5.8-0.3-22.4-1.1-33.6-10.3c-8.7-7.3-10.8-17.7-14.6-38.4
	c-2-11.2-4.3-27.3-4.1-47.3c6-2.7,12-5.4,18-8.1c7.9-1.9,18.8-3.6,31.8-3.3c12.2,0.4,22.4,2.5,30,4.5c6.7,2.7,13.5,5.4,20.2,8.1
	l21,0c5.3-2.6,11.4-5,18.2-6.9c28.9-8.1,54.5-1.7,68,2.9c11.3,4.2,22.7,8.4,34,12.5c89.1,4.5,178.1,8.9,267.2,13.4l-3.6,12.4
	l-96.4,1.3l-102.9-2.6l-47.6,0.8l-21.5,0.7c-0.9,16.4-5.2,28.8-8.7,36.4c-4.8,10.7-8.5,18.9-17.3,23.8
	C993.4,766.8,985.8,767.5,970.7,769.2L970.7,769.2z"/>
<path class="st5" d="M837.3,639.4c13.9,5.3,19.8-11.9,47.6-18.7c33.3-8.2,45,11.5,130.7,38.5c32,10.1,40.6,10.6,50.7,21.6
	c13.5,14.8,11.8,29,18.6,77.6c7,49.8,10.5,74.6,21.7,97.8c15.6,32.2,26.5,28.6,40,60.5c17.5,40.9,11.8,75.3,18.6,76.1
	c9.4,1,15.6-64.5,30.6-65.3c14.8-0.7,37.8,61.1,38.7,127.2c1,73.4-25.6,128.1-16.6,132c8.9,4,24.1-54,69-68.4
	c53.1-17.1,104.1,40.4,124.4,21.4c8.7-8,4.8-27.2-3.2-65.2c-12.6-60-24.9-74.8-27.8-102.4c-5.1-46.1,21-75,41.3-115
	c44.7-88.6,49.2-209.8,10.2-301.2c-40.2-93.9-120.7-142.6-146.2-158.1c-47.3-28.6-88.5-39-99.9-41.7c-19.9-4.7-76.4-16.1-147.4-1.3
	c-27.1,5.7-142.7,33.2-197.8,124.6c-5,8.3-15.8,27.5-21.4,54.3C810.3,574.4,814,630.5,837.3,639.4L837.3,639.4z"/>
<path class="st6" d="M576.3,1680.9c2.4-9.7,15.4-14.5,22.4-16.8c51.4-17,106.3-20.1,106.3-20.1s47.3-2.7,109.5,5.4
	c9.5,1.2,25.9,3.6,33.9,15.5c3.6,5.4,3.2,9.2,4.6,31.1c2.1,33.9,4,40.8,9.1,46.1c7.1,7.5,17.2,8.7,21.8,9.3
	c35.9,4.7,69.3,21.2,105.1,26.6c39.9,6,48.9,12.9,80.9,23.9c9.9,3.4,16.7,5.5,19.8,6.4c0,0,13.7,4.2,28.8,8
	c14.2,3.6,81.5,20.9,127.6,24.6c128.1,10.4,299.2-35.3,368.2-53.7c3.4-0.9,18.7-5,36.5-0.7c6.8,1.7,28.3,6.8,33.4,23.6
	c2.9,9.9,0.1,23.2-8,28.5c-5.7,3.7-12.4,2.4-13.1,5.2c-0.6,2.5,4.2,5.4,9.6,8.7c11.6,7.2,18.7,7.7,25,16.1c1.5,2,8.8,12,7.1,24.9
	c-2.2,16-25.9,16.4-26.8,29.4c-0.5,7,5.7,8.1,7,21.2c0.9,8.5-1.1,14.3-2.6,17.4c-1.5,3.3-3.6,7.9-8.3,10c-4.8,2.1-8.9-0.1-9.6,1.2
	c-1.3,2.6,15,8.4,17.3,18.7c2.4,10.5-9.8,25.2-23.6,30c-16.4,5.6-39.2-1.5-48-6.1c-1.2-0.6-3.8-2.1-7.7-2.5
	c-8.6-0.9-15.6,4.4-17.3,5.6c-15.3,10.7-97.9,34.2-174.2,12.9c-2.9-0.8-10.5-5.7-21.8-7.5c-15.3-2.4-27.5,1.4-32,2.6
	c-23.2,6.4-41.3,1.6-70.5,0.2c-50.7-2.4-110.4,6.5-149.9,9c-172.8,10.9-340.6-78.8-414-78.8c-3.1,0-13.6,0.1-26.3-3.6
	c-27.6-8.3-43.9-28.9-52-39.1c-47.8-60.6-46.6-142.9-59.3-186.8c-3.4-11.6-4-24-7.8-35.5C576.6,1688.4,575.3,1685,576.3,1680.9
	L576.3,1680.9z"/>
<path class="st1" d="M835.7,1623.2c0,0-5.3-19.3-8.2-38.5c-21.8-148.6,4.6-200.7,34.9-219.8c55.7-34.9,113.4,49.8,250.2,50.1
	c152.8,0.4,219-110.2,283.1-71.6c28.8,17.3,36.5,92.1,51.7,241.6c13.3,130.6,6.9,161-12.1,186.7c-36.9,49.8-103.6,57.7-142.2,62.3
	c-75.8,9.1-91.5-16.3-232.3-44.5c-119-23.7-196.1-23.3-206.9-62.1c-4.2-15.1-3.3-53.4-13.1-86.2
	C840.3,1639.2,838.2,1632.6,835.7,1623.2L835.7,1623.2z"/>
<path class="st2" d="M1412.1,1594.8c55.4,2.6,100.7,9.5,133.2,15.8c122.1,23.6,128.9,46.9,131.4,56.4c1.1,4.1-1.1,16.8-5.2,42.1
	c-2.9,16.8-7.3,43.2-11.1,60.1c-10.6,47-21.5,95.3-54.2,132.5c-31.8,36.2-95,73.8-147.7,60.4c-120.5-30.8-149-319.9-77.1-360.6
	C1387.7,1598,1395.8,1594,1412.1,1594.8L1412.1,1594.8z"/>
<path class="st3" d="M1097.8,1180.3c-4.6-34.5-11.7-61.6-17.7-80.5c-13.3-42-29.2-70.7-19.4-96.9c1.3-3.5,4.7-11.3,1.4-15
	c-4.9-5.4-21.7-2.9-31.8,6.4c-6.9,6.3-9,16.2-13.2,36c-3.3,15.4-4,26.9-4.1,29.9c-0.2,3.4,0,2.1,0.4,28.4
	c0.2,17.6,0.2,20.4,1.9,25.4c3.5,11,9.5,15.1,7.8,17.8c-2.5,4-18.5-0.4-30.4-5.6c-31-13.7-45.6-38.9-61.4-60.5
	c-3.2-4.5-74.5-100.7-116.3-88.2c-7.3,2.2-17.3,8.8-18,16.6c-0.5,6,4.8,8.8,16.9,22.2c15.1,16.8,12.6,18.8,26.2,32.5
	c3.1,3.2,9.2,9.1,17.4,18.5c1.8,2,4.3,5,5.6,6.7c13.1,16.3,18.1,40.7,15.7,41.7c-1.9,0.7-6.5-14-22.9-30.4
	c-6.7-6.7-13.5-13.6-23.1-13.9c-11-0.4-23.4,8-27.1,18.3c-9.4,26.5,38.7,68.2,38.7,68.2s-13.9-18.3-34.5-27.2
	c-4.8-2.1-10.3-3.9-16.2-2.2c-8.1,2.3-12,9.8-13,11.7c-6,11.4-2.8,26.2,4.8,35.1c4.3,5,6.3,3.9,16.3,11.1
	c12.5,9,22.6,20.4,21.1,22.4c-2.2,3-28.9-21.5-43.6-13.4c-8.2,4.5-10.7,18-8,28c3.5,13.6,17.7,20.9,23.6,23.9
	c42.2,22.8,32.7,43.3,88.1,81.8c32.1,22.3,40,18.7,74.8,45.4c1.2,0.9,21.3,16.5,39.9,35.4c49.5,50.6,75.4,112.7,80.4,124.5
	c42.9,101.1,118.3,188,240.6,328.7c57.1,65.7,91.8,97.5,143.8,107.3c6.5,1.2,85.5,15.1,128.4-30c51.7-54.3,6.4-167.8-33.2-228.1
	c-23.1-35.2-35.5-38.4-180.8-160.6c-55.8-47-83.6-70.7-113.4-98.8c-43.9-41.2-102.2-101.3-164.5-181.7"/>
<path class="st7" d="M994.9,1409.8c9.2-10.5,19.3-21.2,30.3-32c33.1-32.2,66.7-56.7,96.9-75.4c12,14.1,24.1,28.2,36.1,42.3
	c-3.7,4.9-7.6,9.9-11.8,14.8c-35.7,42.8-77.4,72.2-116.4,92.7C1018.4,1438.1,1006.6,1423.9,994.9,1409.8L994.9,1409.8z"/>
<path class="st8" d="M1093.4,1306.4l-69.5,54c-0.4,0.5-2.1,2.2-2.2,4.9c-0.2,3.3,1.9,5.4,2.2,5.8c16.3,18.2,32.8,36.3,49.1,54.5
	c0.7,0.5,3.9,2.8,8.4,2.2c3.7-0.5,6-2.5,6.7-3.2c20.7-17.4,41.2-35,61.9-52.4c0.3-0.1,4.3-2.4,4.6-6.8c0.2-3.6-2-6-2.4-6.3
	c-16-16.9-32.2-33.7-48.2-50.6c-0.9-0.6-2.4-1.5-4.6-2C1096.6,1305.7,1094.5,1306.1,1093.4,1306.4L1093.4,1306.4z"/>
<path class="st8" d="M1033.7,1342.1c0.7-2.6,2.6-4,4-5c1.3-1,2.9-2.2,5.2-2.3c0,0,1.3-0.1,2.7,0.3c4.7,1.3,8,7.3,8.5,8.1
	c-4.2,3.5-8.4,7-12.7,10.5c-0.4-0.3-8.1-5-8.1-9.7C1033.4,1343,1033.7,1342.1,1033.7,1342.1L1033.7,1342.1z"/>
<path class="st1" d="M1092.4,1315.3l-59.3,46c-0.4,0.4-1.8,1.8-1.9,4.1c-0.2,2.8,1.6,4.6,1.9,4.9c13.9,15.5,27.9,31,41.9,46.5
	c0.6,0.4,3.3,2.4,7.2,1.9c3.1-0.4,5.1-2.2,5.7-2.8c17.6-14.9,35.1-29.8,52.7-44.7c0.2-0.1,3.7-2,3.9-5.8c0.2-3-1.7-5.1-2.1-5.4
	c-13.7-14.4-27.4-28.7-41.1-43.1c-0.8-0.5-2.1-1.3-3.9-1.7C1095.1,1314.7,1093.3,1315.1,1092.4,1315.3z"/>
<path class="st2" d="M839.4,757c4,0.2,8.2,0.5,13.4-0.9c13.5-3.5,20.6-14,21.7-15.7c3.8-5.8,4.7-12.4,6.5-25.5
	c1.1-7.9,1.6-14.4,1.8-18.7l-3.9-17.6c-5.6-2.2-11.2-4.5-16.8-6.7c-5.3-1.5-12.2-3-20.3-3.6"/>
<path class="st9" d="M841.8,668.4c-1.5-0.1-3-0.2-4.5-0.2c-10.7-0.3-19.8,1.1-26.3,2.7c-5,2.2-9.9,4.5-14.9,6.7
	c-0.1,16.5,1.7,29.9,3.4,39.1c3.1,17.1,4.9,25.8,12.1,31.8c9.3,7.7,23.1,8.4,27.9,8.5"/>
<path class="st2" d="M1013.9,708.1c-2.4,12.8-6.4,22.6-9.5,29.2c-4.9,10.2-7.7,15.8-14.2,19.3c-3.4,1.9-9.6,2.5-21.9,3.7
	c-9.3,1-14.1,1.4-18.3,0.9c-3.8-0.5-12.4-1.5-19.5-6.9c-9.1-6.9-11.1-17.4-13.7-30.2c-1.2-6.3-2.4-15.5-1.6-26.8
	c0.8-5.9,1.6-11.9,2.4-17.8c3.1-1.6,8.2-3.8,14.8-5.6c25.1-6.9,46.8-0.4,55.3,2.3c6.2,2,15,5.4,24.8,11.4c0.4,3.9,0.8,8,1,12.3
	C1013.7,702.8,1013.8,705.5,1013.9,708.1L1013.9,708.1z"/>
<path class="st10" d="M1039.2,723.6l19.8,0"/>
</svg>
