<svg enable-background="new 0 0 2244.5 2218.4" viewBox="0 0 2244.5 2218.4" xmlns="http://www.w3.org/2000/svg"><path d="m2 0h2244.5v2144.5h-2244.5z" fill="none"/><g fill="#212120"><path d="m708.5 1953.9c-16.8 50.9-31.8 271.3-37.9 291.2 0 .1-.1.4-.1.9.7 13.7 122.1 15.6 218.1 16.5 407.9 3.6 357.4-12.1 440.1-.9 115 15.5 219.6 46.7 241.3-.5 4.6-9.9 3-37.3-.2-91.7-2.8-47.7-6.9-90.1-7.9-97.3-20-139.5-789.9-310.6-853.4-118.2z"/><path d="m720.3 1066.6c-.7-2.4 59-25.5 148.9-49.1 34.9-9.2 57.9-14.2 85.5-17.2 26-2.8 47.5-3.5 67.6-2.9 89.1 2.6 230.4 16.5 320.9 41.2 0 0 12.5 3.5 29.1 7.8 27.1 7.1 47.1 11.8 53.2 13.3 19.7 4.8 50.7 12.9 99.3 27.7-14.9 1.1-22.7 2.3-27.1 3.4-.8.2-9 2-9 2-25 206.2-25.4 209.7-25.4 209.7-.6 4.5-2.6 18.6-4.5 37.1-.8 7.7-1.7 15.9-2.4 24.7-.8 8.5-1.1 13.8-1.8 21-2.2 22.7-4.9 40.8-5.4 43.9-8.1 54.1 62.3 381.9-34.1 468.8-28.3 25.6-100 16.3-243.3-2.2-142.2-18.3-222.1-55.2-241.5-84.8-2.4-3.6-10.8-17.8-26.7-22.6-17.4-5.4-33.1 3.8-42.7 7.4-39 15-99.8-11.5-121.4-39.7-57.3-75 72.2-281.7 72.2-281.7-1.2-70.7-.3-199.9-12.2-276.3-7.3-46.7-11-70.1-28.3-92-8.2-10.4-7.6-32.3-22.6-39.3-13.4-6.3-27.9 1-28.3-.2z"/><path d="m768.2 1061.4c-32.1-15.1-90.5 24.4-119.3 70.7-16.9 27.2-21.1 52.8-22.4 61.7-19.3 129.3-29.1 194.1-32.3 245.1-11 175.6-43.6 266.4-19.9 274.8 12.6 4.5 20.3-21.7 59.3-43.9.1 0 42.9-3.9 237.8-21.8-.7-11.8-1.9-28.7-3.4-48.9-2.9-36.6-8-102.9-18.3-175.8-9.4-66.9-10.5-49.4-22.3-128.5-2.3-15.3-12.1-81.5-29.7-160.6-12.4-55.4-17.6-67.1-29.5-72.8z"/><path d="m1460.7 1068.5c167.4 43.9 208.2 90.2 213.3 125 2 14.1-1.3 29.2 2.1 67.7 4.1 45.2 13.4 75.3 18.6 95.6 32 124.3-17.8 156.5.7 306.7 1.6 13 4.4 32.8-6 39.8-19.1 12.8-62.5-30-127.1-65.4-86.8-47.6-119.2-20.7-147.6-53.5-39.6-45.8-1.9-117.4 24.1-243.1 13.2-63.9 26.3-156.3 21.9-272.8z"/></g><path d="m1213.8 862.5 21.4 5.4 28.4-45.9 7.1-56.5-.1-28.2-48.1.1z" fill="#ecba9e"/><path d="m981.5 988.5c2.1 11.4 5.9 27.6 12.4 46.3 9.4 26.6 23.5 67 52.4 94 48.1 44.8 140.3 55.4 198.1 14.5 32.1-22.7 44.7-54.8 49-65.8 20.9-53.3-6.1-76.7 8.8-162.8 4.3-24.7 8.7-35.6 1.4-43.3-5.9-6.2-20.2-11.3-127.4 28.7-32.6 12.1-60.1 22.4-99.7 40.5-39.4 18-71.7 35-95 47.9z" fill="#ecba9e"/><path d="m860.6 529.1c27.3-7.8 69.9-16.6 121.9-13.2 26.3 1.6 72.4 4.6 118.9 28.6 79 40.9 136.5 131.2 133.6 226.7-.7 22.9-1.7 74.5-37.6 120.6-7 8.9-27 32.8-89 61.9-82.4 38.8-158.3 75.6-205.7 44.2-22.3-14.9-35-59.3-60.4-148.3-3-10.7-6.6-24.2-7.6-41.8-.9-16.6 1.5-24 3.2-51.9.9-14 1.7-31.4 2.7-53.6 1.6-37.4 1.4-46 3-65.7 2-27.4 6.6-64.1 17-107.5z" fill="#f6c2a1"/><path d="m970.7 769.2c-11.5 1.2-17.3 1.7-22.5 1.1-4.7-.6-15.3-1.8-24-8.4-11.2-8.5-13.7-21.4-16.8-37.1-1.5-7.7-2.9-19-1.9-32.9-4.5-.2-9-.5-13.5-.7-.2 5.3-.8 13.1-2.2 22.6-2.3 15.8-3.4 23.8-7.9 30.8-1.3 2-9.8 14.7-26.2 19-6.3 1.6-11.3 1.3-16.2 1.1-5.8-.3-22.4-1.1-33.6-10.3-8.7-7.3-10.8-17.7-14.6-38.4-2-11.2-4.3-27.3-4.1-47.3 6-2.7 12-5.4 18-8.1 7.9-1.9 18.8-3.6 31.8-3.3 12.2.4 22.4 2.5 30 4.5 6.7 2.7 13.5 5.4 20.2 8.1h21c5.3-2.6 11.4-5 18.2-6.9 28.9-8.1 54.5-1.7 68 2.9 11.3 4.2 22.7 8.4 34 12.5 89.1 4.5 178.1 8.9 267.2 13.4l-3.6 12.4-96.4 1.3-102.9-2.6-47.6.8-21.5.7c-.9 16.4-5.2 28.8-8.7 36.4-4.8 10.7-8.5 18.9-17.3 23.8-4.2 2.2-11.8 2.9-26.9 4.6z" fill="#293237"/><path d="m837.3 639.4c13.9 5.3 19.8-11.9 47.6-18.7 33.3-8.2 45 11.5 130.7 38.5 32 10.1 40.6 10.6 50.7 21.6 13.5 14.8 11.8 29 18.6 77.6 7 49.8 10.5 74.6 21.7 97.8 15.6 32.2 26.5 28.6 40 60.5 17.5 40.9 11.8 75.3 18.6 76.1 9.4 1 15.6-64.5 30.6-65.3 14.8-.7 37.8 61.1 38.7 127.2 1 73.4-25.6 128.1-16.6 132 8.9 4 24.1-54 69-68.4 53.1-17.1 104.1 40.4 124.4 21.4 8.7-8 4.8-27.2-3.2-65.2-12.6-60-24.9-74.8-27.8-102.4-5.1-46.1 21-75 41.3-115 44.7-88.6 49.2-209.8 10.2-301.2-40.2-93.9-120.7-142.6-146.2-158.1-47.3-28.6-88.5-39-99.9-41.7-19.9-4.7-76.4-16.1-147.4-1.3-27.1 5.7-142.7 33.2-197.8 124.6-5 8.3-15.8 27.5-21.4 54.3-8.8 40.7-5.1 96.8 18.2 105.7z" fill="#4a362f"/><path d="m576.3 1680.9c2.4-9.7 15.4-14.5 22.4-16.8 51.4-17 106.3-20.1 106.3-20.1s47.3-2.7 109.5 5.4c9.5 1.2 25.9 3.6 33.9 15.5 3.6 5.4 3.2 9.2 4.6 31.1 2.1 33.9 4 40.8 9.1 46.1 7.1 7.5 17.2 8.7 21.8 9.3 35.9 4.7 69.3 21.2 105.1 26.6 39.9 6 48.9 12.9 80.9 23.9 9.9 3.4 16.7 5.5 19.8 6.4 0 0 13.7 4.2 28.8 8 14.2 3.6 81.5 20.9 127.6 24.6 128.1 10.4 299.2-35.3 368.2-53.7 3.4-.9 18.7-5 36.5-.7 6.8 1.7 28.3 6.8 33.4 23.6 2.9 9.9.1 23.2-8 28.5-5.7 3.7-12.4 2.4-13.1 5.2-.6 2.5 4.2 5.4 9.6 8.7 11.6 7.2 18.7 7.7 25 16.1 1.5 2 8.8 12 7.1 24.9-2.2 16-25.9 16.4-26.8 29.4-.5 7 5.7 8.1 7 21.2.9 8.5-1.1 14.3-2.6 17.4-1.5 3.3-3.6 7.9-8.3 10-4.8 2.1-8.9-.1-9.6 1.2-1.3 2.6 15 8.4 17.3 18.7 2.4 10.5-9.8 25.2-23.6 30-16.4 5.6-39.2-1.5-48-6.1-1.2-.6-3.8-2.1-7.7-2.5-8.6-.9-15.6 4.4-17.3 5.6-15.3 10.7-97.9 34.2-174.2 12.9-2.9-.8-10.5-5.7-21.8-7.5-15.3-2.4-27.5 1.4-32 2.6-23.2 6.4-41.3 1.6-70.5.2-50.7-2.4-110.4 6.5-149.9 9-172.8 10.9-340.6-78.8-414-78.8-3.1 0-13.6.1-26.3-3.6-27.6-8.3-43.9-28.9-52-39.1-47.8-60.6-46.6-142.9-59.3-186.8-3.4-11.6-4-24-7.8-35.5-.8-3.4-2.1-6.8-1.1-10.9z" fill="#efbb9e"/><path d="m835.7 1623.2s-5.3-19.3-8.2-38.5c-21.8-148.6 4.6-200.7 34.9-219.8 55.7-34.9 113.4 49.8 250.2 50.1 152.8.4 219-110.2 283.1-71.6 28.8 17.3 36.5 92.1 51.7 241.6 13.3 130.6 6.9 161-12.1 186.7-36.9 49.8-103.6 57.7-142.2 62.3-75.8 9.1-91.5-16.3-232.3-44.5-119-23.7-196.1-23.3-206.9-62.1-4.2-15.1-3.3-53.4-13.1-86.2-.5-2-2.6-8.6-5.1-18z" fill="#212120"/><path d="m1412.1 1594.8c55.4 2.6 100.7 9.5 133.2 15.8 122.1 23.6 128.9 46.9 131.4 56.4 1.1 4.1-1.1 16.8-5.2 42.1-2.9 16.8-7.3 43.2-11.1 60.1-10.6 47-21.5 95.3-54.2 132.5-31.8 36.2-95 73.8-147.7 60.4-120.5-30.8-149-319.9-77.1-360.6 6.3-3.5 14.4-7.5 30.7-6.7z" fill="#ecba9e"/><path d="m1097.8 1180.3c-4.6-34.5-11.7-61.6-17.7-80.5-13.3-42-29.2-70.7-19.4-96.9 1.3-3.5 4.7-11.3 1.4-15-4.9-5.4-21.7-2.9-31.8 6.4-6.9 6.3-9 16.2-13.2 36-3.3 15.4-4 26.9-4.1 29.9-.2 3.4 0 2.1.4 28.4.2 17.6.2 20.4 1.9 25.4 3.5 11 9.5 15.1 7.8 17.8-2.5 4-18.5-.4-30.4-5.6-31-13.7-45.6-38.9-61.4-60.5-3.2-4.5-74.5-100.7-116.3-88.2-7.3 2.2-17.3 8.8-18 16.6-.5 6 4.8 8.8 16.9 22.2 15.1 16.8 12.6 18.8 26.2 32.5 3.1 3.2 9.2 9.1 17.4 18.5 1.8 2 4.3 5 5.6 6.7 13.1 16.3 18.1 40.7 15.7 41.7-1.9.7-6.5-14-22.9-30.4-6.7-6.7-13.5-13.6-23.1-13.9-11-.4-23.4 8-27.1 18.3-9.4 26.5 38.7 68.2 38.7 68.2s-13.9-18.3-34.5-27.2c-4.8-2.1-10.3-3.9-16.2-2.2-8.1 2.3-12 9.8-13 11.7-6 11.4-2.8 26.2 4.8 35.1 4.3 5 6.3 3.9 16.3 11.1 12.5 9 22.6 20.4 21.1 22.4-2.2 3-28.9-21.5-43.6-13.4-8.2 4.5-10.7 18-8 28 3.5 13.6 17.7 20.9 23.6 23.9 42.2 22.8 32.7 43.3 88.1 81.8 32.1 22.3 40 18.7 74.8 45.4 1.2.9 21.3 16.5 39.9 35.4 49.5 50.6 75.4 112.7 80.4 124.5 42.9 101.1 118.3 188 240.6 328.7 57.1 65.7 91.8 97.5 143.8 107.3 6.5 1.2 85.5 15.1 128.4-30 51.7-54.3 6.4-167.8-33.2-228.1-23.1-35.2-35.5-38.4-180.8-160.6-55.8-47-83.6-70.7-113.4-98.8-43.9-41.2-102.2-101.3-164.5-181.7" fill="#f6c2a1"/><path d="m994.9 1409.8c9.2-10.5 19.3-21.2 30.3-32 33.1-32.2 66.7-56.7 96.9-75.4 12 14.1 24.1 28.2 36.1 42.3-3.7 4.9-7.6 9.9-11.8 14.8-35.7 42.8-77.4 72.2-116.4 92.7-11.6-14.1-23.4-28.3-35.1-42.4z" fill="#3a484f"/><path d="m1093.4 1306.4-69.5 54c-.4.5-2.1 2.2-2.2 4.9-.2 3.3 1.9 5.4 2.2 5.8 16.3 18.2 32.8 36.3 49.1 54.5.7.5 3.9 2.8 8.4 2.2 3.7-.5 6-2.5 6.7-3.2 20.7-17.4 41.2-35 61.9-52.4.3-.1 4.3-2.4 4.6-6.8.2-3.6-2-6-2.4-6.3-16-16.9-32.2-33.7-48.2-50.6-.9-.6-2.4-1.5-4.6-2-2.8-.8-4.9-.4-6-.1z" fill="#ecab46"/><path d="m1033.7 1342.1c.7-2.6 2.6-4 4-5 1.3-1 2.9-2.2 5.2-2.3 0 0 1.3-.1 2.7.3 4.7 1.3 8 7.3 8.5 8.1-4.2 3.5-8.4 7-12.7 10.5-.4-.3-8.1-5-8.1-9.7.1-1 .4-1.9.4-1.9z" fill="#ecab46"/><path d="m1092.4 1315.3-59.3 46c-.4.4-1.8 1.8-1.9 4.1-.2 2.8 1.6 4.6 1.9 4.9 13.9 15.5 27.9 31 41.9 46.5.6.4 3.3 2.4 7.2 1.9 3.1-.4 5.1-2.2 5.7-2.8 17.6-14.9 35.1-29.8 52.7-44.7.2-.1 3.7-2 3.9-5.8.2-3-1.7-5.1-2.1-5.4-13.7-14.4-27.4-28.7-41.1-43.1-.8-.5-2.1-1.3-3.9-1.7-2.3-.5-4.1-.1-5 .1z" fill="#212120"/><path d="m839.4 757c4 .2 8.2.5 13.4-.9 13.5-3.5 20.6-14 21.7-15.7 3.8-5.8 4.7-12.4 6.5-25.5 1.1-7.9 1.6-14.4 1.8-18.7l-3.9-17.6c-5.6-2.2-11.2-4.5-16.8-6.7-5.3-1.5-12.2-3-20.3-3.6" fill="#ecba9e"/><path d="m841.8 668.4c-1.5-.1-3-.2-4.5-.2-10.7-.3-19.8 1.1-26.3 2.7-5 2.2-9.9 4.5-14.9 6.7-.1 16.5 1.7 29.9 3.4 39.1 3.1 17.1 4.9 25.8 12.1 31.8 9.3 7.7 23.1 8.4 27.9 8.5" fill="#e4e9ee"/><path d="m1013.9 708.1c-2.4 12.8-6.4 22.6-9.5 29.2-4.9 10.2-7.7 15.8-14.2 19.3-3.4 1.9-9.6 2.5-21.9 3.7-9.3 1-14.1 1.4-18.3.9-3.8-.5-12.4-1.5-19.5-6.9-9.1-6.9-11.1-17.4-13.7-30.2-1.2-6.3-2.4-15.5-1.6-26.8.8-5.9 1.6-11.9 2.4-17.8 3.1-1.6 8.2-3.8 14.8-5.6 25.1-6.9 46.8-.4 55.3 2.3 6.2 2 15 5.4 24.8 11.4.4 3.9.8 8 1 12.3.2 2.9.3 5.6.4 8.2z" fill="#ecba9e"/><path d="m1039.2 723.6h19.8" fill="#ede5de"/></svg>